<?xml version="1.0" encoding="UTF-8"?>
<svg id="Layer_2" xmlns="http://www.w3.org/2000/svg" viewBox="0 0 100 100">
  <defs>
    <style>
      .cls-1 {
        fill: none;
        stroke: #000;
        stroke-linecap: round;
        stroke-linejoin: round;
        stroke-width: 2.2px;
      }

      .cls-2 {
        opacity: .5;
      }

      .cls-3 {
        fill: #cfd0d2;
      }
    </style>
  </defs>
  <circle class="cls-3" cx="50" cy="50" r="49"/>
  <g class="cls-2">
    <path class="cls-1" d="M61.17,68.07v2.34c0,5.86-4.75,10.62-10.62,10.62h-4.9c-5.86,0-10.62-4.75-10.62-10.62h0v-6.52"/>
    <g>
      <path class="cls-1" d="M21.79,63.49h20.64"/>
      <path class="cls-1" d="M42.43,30.4l-20.39-.02h-.25c-3.23,0-5.84,7.41-5.84,16.55s2.61,16.55,5.84,16.55"/>
      <path class="cls-1" d="M25.61,30.38c3.12,0,5.64,7.2,5.64,16.04,0,.81,0,1.55-.04,2.33h11.22"/>
      <path class="cls-1" d="M21.47,63.45c3.15,0,5.7-7.16,5.7-15.99s-2.55-15.99-5.7-15.99c0,0-2.63-.55-3.53,3.17"/>
    </g>
    <g>
      <rect class="cls-1" x="42.43" y="25.13" width="36.57" height="43.23" rx="1.92" ry="1.92"/>
      <rect class="cls-1" x="47.59" y="30.93" width="26.26" height="22.29" rx="1.92" ry="1.92"/>
      <rect class="cls-1" x="66.93" y="57.55" width="6.95" height="4.23" rx="1.01" ry="1.01"/>
      <rect class="cls-1" x="47.81" y="57.55" width="6.95" height="4.23" rx="1.01" ry="1.01"/>
      <circle class="cls-1" cx="60.59" cy="59.69" r="2.12"/>
      <path class="cls-1" d="M66.44,40.45c-.14-.95-.64-1.83-1.37-2.39-1.09-.84-2.56-.85-3.65-.02-.25.19-.47.41-.64.66-.17-.25-.39-.47-.64-.66-1.09-.82-2.57-.81-3.65.02-.74.57-1.23,1.43-1.37,2.39-.02.19-.04.37-.04.57,0,.99.39,1.96,1.06,2.64l.14.14c.22.23.47.47.7.72l3.81,3.53,3.81-3.54c.22-.24.47-.48.69-.71l.14-.14c.67-.68,1.06-1.64,1.06-2.64,0-.19-.05-.57-.05-.57Z"/>
    </g>
  </g>
</svg>