<?xml version="1.0" encoding="UTF-8"?>
<svg id="Layer_2" xmlns="http://www.w3.org/2000/svg" viewBox="0 0 100 100">
  <defs>
    <style>
      .cls-1 {
        opacity: .5;
      }

      .cls-2 {
        fill: #cfd0d2;
      }
    </style>
  </defs>
  <circle class="cls-2" cx="50" cy="50" r="49"/>
  <g id="Layer_2-2" data-name="Layer_2" class="cls-1">
    <g id="Layer_1-2">
      <path d="M61.76,37.07c-1.94.12-3.73,1.05-4.95,2.56-1.99,2.37-2.56,5.87-1.83,10.7.19,1.12.44,2.23.76,3.31.92,2.75,1.03,5.71.33,8.52-.81,3.75-.09,7.15,2.03,9.58,2.62,2.82,7.04,2.99,9.86.36.13-.12.25-.24.36-.36,2.49-2.85,2.43-7.67,1.94-11.17-.12-2,.05-4.01.52-5.96.22-1.18.44-2.41.55-3.56.31-3.64-.95-9.01-3.88-11.78-1.51-1.49-3.57-2.29-5.69-2.19ZM68.84,50.77c-.11,1.12-.29,2.23-.51,3.33-.53,2.2-.71,4.46-.54,6.71.59,4.26.11,7.55-1.35,9.23-1.75,1.79-4.62,1.82-6.41.07-.02-.02-.05-.05-.07-.07-2.15-2.46-1.85-5.72-1.48-7.44.78-3.18.65-6.52-.37-9.64-.29-1.01-.52-2.03-.7-3.06-.64-4.08-.22-6.94,1.29-8.74.79-.98,1.96-1.58,3.21-1.64h.26c1.33.02,2.6.55,3.55,1.47,2.26,2.13,3.37,6.73,3.12,9.77Z"/>
      <path d="M38.64,37.07c-2.09-.1-4.13.67-5.64,2.13-2.93,2.78-4.18,8.15-3.87,11.78.12,1.2.3,2.38.54,3.56.47,1.95.65,3.96.52,5.96-.5,3.5-.6,8.27,1.96,11.14,1.29,1.46,3.16,2.28,5.11,2.22,1.95.06,3.82-.75,5.11-2.21,2.11-2.43,2.84-5.83,2.03-9.58-.7-2.81-.58-5.77.34-8.52.31-1.09.56-2.2.75-3.31.76-4.83.16-8.33-1.83-10.7-1.25-1.5-3.07-2.4-5.02-2.48ZM42.99,49.91c-.17,1.03-.41,2.05-.7,3.06-1.02,3.12-1.14,6.45-.37,9.64.37,1.7.67,4.98-1.47,7.44-.82.92-2.01,1.43-3.25,1.36-1.23.06-2.42-.44-3.24-1.36-1.47-1.7-1.95-4.96-1.36-9.23.17-2.25,0-4.52-.54-6.71-.22-1.18-.42-2.29-.51-3.33-.26-3.04.85-7.67,3.12-9.78,1.02-.99,2.4-1.52,3.83-1.47,1.25.07,2.42.67,3.2,1.64,1.52,1.8,1.93,4.66,1.29,8.74Z"/>
      <path d="M74.65,19.36H25.33c-3.29,0-5.96,2.67-5.96,5.96v42.6c-.02,6.99,5.63,12.68,12.62,12.7.01,0,.02,0,.03,0h35.97c6.99,0,12.65-5.67,12.65-12.65V25.33c0-3.29-2.67-5.96-5.96-5.96,0,0-.02,0-.03,0ZM78.16,67.98c0,5.65-4.58,10.22-10.22,10.22h-35.91c-5.65,0-10.22-4.58-10.22-10.22V25.33c.02-1.94,1.6-3.5,3.54-3.5h49.32c1.93.01,3.49,1.57,3.51,3.5v42.65Z"/>
      <path d="M60.54,24.23h-20.86v9.44h20.86v-9.44ZM58.08,31.21h-15.95v-4.52h15.95v4.52Z"/>
    </g>
  </g>
</svg>