<?xml version="1.0" encoding="UTF-8"?>
<svg id="Layer_2" xmlns="http://www.w3.org/2000/svg" viewBox="0 0 100 100">
  <defs>
    <style>
      .cls-1 {
        opacity: .5;
      }

      .cls-2 {
        fill: #cfd0d2;
      }
    </style>
  </defs>
  <circle class="cls-2" cx="50" cy="50" r="49"/>
  <g id="Layer_2-2" data-name="Layer_2" class="cls-1">
    <g id="Layer_1-2">
      <path d="M73.78,70.32l-9.22-3.39c.22-.64.36-1.29.42-1.96l1.11,1.11c2.27,2.32,5.92,2.56,8.47.56,1.35-1.12,2.17-2.75,2.26-4.5.09-1.75-.57-3.45-1.81-4.68l-14.55-14.56c2.48-2.65,3.86-6.14,3.87-9.77,0-1.22-.16-2.43-.47-3.61,2.48-.94,4.07-3.37,3.95-6.01-.13-3.4-3-6.05-6.39-5.91-1.99.08-3.81,1.11-4.9,2.77-4.1-2.07-8.94-2.07-13.03,0-1.14-1.72-3.07-2.76-5.13-2.77h-.05c-3.28.06-5.95,2.64-6.12,5.91-.11,2.64,1.48,5.06,3.95,6-.31,1.18-.47,2.39-.47,3.61,0,3.63,1.39,7.13,3.88,9.77l-14.4,14.41c-2.32,2.27-2.56,5.92-.56,8.48,2.17,2.64,6.08,3.03,8.72.85.16-.13.3-.26.45-.41l1.24-1.26c.06.67.21,1.33.43,1.96l-9.2,3.39c-3.05,1.09-4.81,4.29-4.07,7.45.86,3.31,4.24,5.3,7.56,4.44.2-.05.4-.11.59-.18,0,0,10.02-3.69,15.92-5.88,2.45-.9,5.14-.9,7.59,0,5.91,2.19,15.92,5.88,15.92,5.88.68.26,1.41.39,2.13.38,2.83,0,5.29-1.91,6-4.64.74-3.16-1.02-6.37-4.07-7.45ZM75.58,77.17c-.53,2.06-2.63,3.3-4.69,2.77-.12-.03-.25-.07-.37-.11l-15.91-5.89c-1.48-.54-3.04-.82-4.62-.81-1.57,0-3.13.27-4.61.81l-15.92,5.88c-1.98.75-4.19-.24-4.94-2.22-.05-.14-.1-.28-.14-.43-.45-1.99.67-3.99,2.6-4.65l10.43-3.81c.6-.22.92-.89.69-1.49-.02-.05-.04-.09-.06-.14-.6-1.14-.82-2.44-.64-3.71l.13-.9,3.64-3.64-1.63-1.63-3.91,3.8-.07.06-3.5,3.5c-1.51,1.5-3.96,1.49-5.46-.02-.08-.09-.17-.17-.24-.27-1.22-1.63-1.03-3.92.46-5.32l14.52-14.55.17-.14.06-.07.44-.42c.25-.22.39-.54.39-.88,0-.34-.14-.66-.39-.89-2.55-2.28-4.01-5.54-4.01-8.96,0-1.37.24-2.73.71-4.02.22-.61-.1-1.29-.72-1.51-.07-.03-.15-.04-.22-.06-1.93-.28-3.34-1.98-3.26-3.93.13-2.01,1.77-3.6,3.79-3.66h0c1.58,0,2.99.97,3.56,2.44.13.33.4.58.73.69.33.11.7.07.99-.12,3.89-2.46,8.84-2.46,12.72,0,.3.19.67.23,1,.12.33-.11.6-.37.72-.69.57-1.47,1.98-2.44,3.56-2.44h0c2.02.06,3.66,1.64,3.79,3.66.08,1.95-1.33,3.65-3.26,3.93-.34.06-.64.27-.81.56-.18.3-.21.67-.1,1,.47,1.29.71,2.65.72,4.02,0,3.42-1.46,6.68-4.01,8.96-.25.22-.39.54-.39.87,0,.33.14.65.38.88l.44.42.06.07.16.12,14.76,14.75c.77.77,1.17,1.82,1.12,2.91-.05,1.09-.56,2.1-1.4,2.79-1.62,1.24-3.91,1.06-5.32-.41l-3.35-3.35s-.1-.08-.15-.11l-3.78-3.78-1.63,1.63,3.67,3.67.13.87c.18,1.27-.05,2.57-.66,3.7-.3.57-.07,1.27.5,1.57.04.02.09.04.14.06l10.39,3.81c1.93.67,3.04,2.69,2.57,4.68Z"/>
      <path d="M51.49,29.81h-2.98c-1.43,0-2.58,1.16-2.58,2.59,0,.74.32,1.44.87,1.93l2.04,1.83v.51h-.9v2.35h4.15v-2.35h-.92v-.51l2.04-1.81c1.08-.93,1.2-2.56.27-3.64-.5-.58-1.23-.9-1.99-.9ZM51.64,32.56l-1.63,1.47-1.63-1.47c-.07-.06-.1-.17-.06-.25.03-.09.11-.16.21-.15h2.98c.1,0,.19.06.21.15.05.1,0,.22-.09.28v-.02Z"/>
    </g>
  </g>
</svg>