<?xml version="1.0" encoding="UTF-8"?>
<svg id="Layer_2" xmlns="http://www.w3.org/2000/svg" viewBox="0 0 100 100">
  <defs>
    <style>
      .cls-1 {
        opacity: .5;
      }

      .cls-2 {
        fill: #cfd0d2;
      }
    </style>
  </defs>
  <circle class="cls-2" cx="50" cy="50" r="49"/>
  <g id="Layer_2-2" data-name="Layer_2" class="cls-1">
    <g id="Layer_1-2">
      <path d="M60.79,35.52h-21.38c-1.39,0-2.51,1.13-2.51,2.52l.06,23.93c0,1.39,1.12,2.51,2.5,2.52h0l21.4-.06c1.39,0,2.51-1.13,2.5-2.52h0s-.06-23.88-.06-23.88c0-1.39-1.13-2.51-2.52-2.5,0,0,0,0,0,0ZM60.85,62.15l-21.39.06h0c-.13,0-.23-.09-.24-.22,0,0,0,0,0,0l-.06-23.95c0-.12.09-.22.21-.23,0,0,.01,0,.02,0h21.39c.13,0,.23.1.23.23h0s.06,23.88.06,23.88c0,.12-.09.22-.21.23h-.02Z"/>
      <path d="M53.09,43.19h-.09c-1.15,0-2.27.38-3.16,1.11-.9-.71-2.01-1.1-3.16-1.1-.26,0-.53.02-.79.06-1.52.26-2.78,1.33-3.27,2.8-.58,1.59-.25,3.38.87,4.65l5.53,6.32c.39.45,1.07.51,1.53.12.04-.04.08-.08.12-.12l5.53-6.32c1.18-1.37,1.47-3.3.73-4.95-.67-1.53-2.16-2.53-3.83-2.57ZM54.47,49.25l-4.63,5.27-4.66-5.31c-.57-.65-.74-1.56-.44-2.37.22-.68.8-1.19,1.51-1.31.14-.01.29-.01.43,0,.63,0,1.24.21,1.73.6l1.43,1.15,1.47-1.2c.48-.39,1.08-.6,1.7-.6h.06c.8.02,1.5.51,1.8,1.25.37.85.21,1.84-.4,2.53Z"/>
      <path d="M67.43,47.83c1.86,0,3.37-1.51,3.37-3.37h0v-5.47c0-1.86-1.51-3.38-3.37-3.38h-.66c-.32-2.16-2.16-3.75-4.34-3.76h-.32l-3.04-13.32h-17.87l-3.04,13.32h-.28c-2.43,0-4.39,1.97-4.4,4.4v7.61h-.92c-1.86,0-3.37,1.51-3.37,3.37v5.47c0,1.86,1.51,3.37,3.37,3.37h.88v7.61c0,2.43,1.98,4.4,4.41,4.4,0,0,.02,0,.02,0h0l3.06,13.37h17.9l3.06-13.37h.54c2.18,0,4.03-1.6,4.34-3.75h.66c1.86,0,3.37-1.51,3.37-3.37v-5.48c0-1.86-1.51-3.37-3.37-3.37h-.6v-4.29h.6ZM33.38,53.8h-.79c-.6,0-1.09-.49-1.09-1.09h0v-5.47c.02-.58.49-1.05,1.07-1.06h.79l.02,7.62ZM66.87,54.39h.56c.6,0,1.09.49,1.09,1.1v5.47c0,.6-.49,1.09-1.09,1.09h-.56v-7.66ZM68.52,38.99v5.47c0,.6-.48,1.09-1.08,1.1,0,0,0,0,0,0h-.6v-7.66h.6c.6,0,1.09.49,1.09,1.09,0,0,0,0,0,0ZM43.02,20.82h14.22l2.53,11.06h-19.26l2.52-11.06ZM57.02,79.19h-14.22l-2.55-11.1h19.3l-2.54,11.1ZM62.43,65.81h-24.55c-1.17,0-2.12-.95-2.12-2.12h0v-27.44c0-1.17.95-2.12,2.12-2.12h24.55c1.06,0,1.95.79,2.09,1.84v11.85h0v15.87c0,1.16-.93,2.1-2.09,2.12Z"/>
    </g>
  </g>
</svg>