<?xml version="1.0" encoding="UTF-8"?>
<svg id="Layer_2" xmlns="http://www.w3.org/2000/svg" viewBox="0 0 100 100">
  <defs>
    <style>
      .cls-1 {
        opacity: .5;
      }

      .cls-2 {
        fill: #cfd0d2;
      }
    </style>
  </defs>
  <circle class="cls-2" cx="50" cy="50" r="49"/>
  <g id="Layer_1-2" class="cls-1">
    <g>
      <path d="M34.87,43.7v14.58c0,3.35,2.72,6.07,6.07,6.07h1.86v-26.72h-1.86c-3.35,0-6.07,2.72-6.07,6.07ZM40.48,62.01c-1.85-.22-3.29-1.81-3.29-3.72v-14.58c0-1.92,1.44-3.5,3.29-3.72v22.03Z"/>
      <path d="M85.29,33.62h-4.26v1.38h-2.72v-1.38h-45.8c-2.94,0-5.33,2.39-5.33,5.33v1.54l-15.25-3.53v28.06l15.26-3.53v1.54c0,2.94,2.39,5.33,5.33,5.33h45.79v-20.96h2.72v1.38h4.26c3.42,0,6.2-2.78,6.2-6.2v-2.75c0-3.42-2.78-6.2-6.2-6.2h0ZM14.25,39.89l2.64.61v21l-2.64.61v-22.23ZM19.22,60.96v-19.93l7.98,1.85v16.24l-7.98,1.85ZM76,66.04h-43.49c-1.66,0-3.01-1.35-3.01-3.01v-24.08c0-1.66,1.35-3.01,3.01-3.01h43.45v11.46h.03v18.65h0ZM78.32,45.08v-7.77h2.72v7.77h-2.72ZM89.17,42.57c0,2.14-1.74,3.88-3.88,3.88h-1.93v-10.51h1.93c2.14,0,3.88,1.74,3.88,3.88v2.75h0Z"/>
    </g>
  </g>
</svg>