<?xml version="1.0" encoding="UTF-8"?>
<svg id="Layer_2" xmlns="http://www.w3.org/2000/svg" viewBox="0 0 100 100">
  <defs>
    <style>
      .cls-1 {
        opacity: .5;
      }

      .cls-2 {
        fill: #cfd0d2;
      }
    </style>
  </defs>
  <circle class="cls-2" cx="50" cy="50" r="49"/>
  <g id="Layer_2-2" data-name="Layer_2" class="cls-1">
    <g id="Layer_1-2">
      <path d="M42.17,51.7c1.45,1.44,3.8,1.44,5.25,0l4.45-4.46c.82-.81,1.21-1.96,1.05-3.11-.15-1.16-.84-2.17-1.86-2.75-6.11-3.48-13.24-3.29-15.06-1.47l-.19.18c-1.44,1.45-1.44,3.8,0,5.25l6.35,6.34ZM37.38,41.66l.19-.18c.29-.28,1.58-.63,3.45-.63,3.15.03,6.24.88,8.96,2.45.42.24.7.65.76,1.13.05.46-.11.91-.43,1.24l-4.45,4.46c-.59.58-1.54.58-2.14,0l-6.35-6.35c-.57-.59-.57-1.52,0-2.11Z"/>
      <path d="M55.91,47.23c-1.14-.14-2.28.25-3.09,1.06l-4.4,4.41c-1.45,1.45-1.45,3.8,0,5.25,0,0,0,0,0,0l6.24,6.24c1.45,1.45,3.79,1.46,5.25.01,0,0,0,0,.01-.01l.18-.18c1.6-1.59,2.84-7.82-1.48-15.02-.58-.97-1.58-1.62-2.71-1.76ZM58.54,62.46l-.19.18c-.59.58-1.54.58-2.13,0l-6.25-6.24c-.58-.59-.58-1.54,0-2.14l4.4-4.41c.29-.28.67-.44,1.08-.44.06,0,.13,0,.19,0,.45.05.86.31,1.08.7,3.71,6.18,2.66,11.47,1.82,12.34Z"/>
      <path d="M79.52,20.47c-.78-.73-1.91-.95-2.9-.56l-6.77,2.2c-1.58.52-3.01,1.41-4.18,2.6l-1.66,1.63.66.76c.18.19.18.49,0,.68-.19.18-.49.18-.68,0l-.76-.66-3.61,3.61.66.76c.17.21.14.52-.07.69-.18.14-.43.14-.61,0l-.76-.66-5.57,5.57c-7.74-4.58-16.12-3.74-17.93-1.93l-9.49,9.54c-8.15,8.13-8.16,21.33-.02,29.48,3.91,3.92,9.22,6.12,14.75,6.12,5.54.02,10.85-2.18,14.76-6.11l9.51-9.5c1.92-1.92,3.28-9.47-1.96-17.9l5.6-5.6-.66-.76c-.18-.19-.18-.49,0-.68h0c.19-.18.49-.18.68,0l.76.66,3.61-3.6-.66-.76c-.18-.19-.18-.48,0-.67.19-.18.49-.18.68,0l.76.66,1.63-1.62c1.18-1.17,2.07-2.6,2.6-4.18l2.2-6.83c.39-1,.18-2.14-.56-2.92ZM55.15,38.34l3.94-3.94c1.41.47,2.93-.29,3.4-1.7.18-.55.18-1.14,0-1.69l1.02-1.02c.97.32,2.03.07,2.75-.65.73-.72.98-1.79.65-2.76l.33-.33c.92-.94,2.05-1.64,3.3-2.06l5.55-1.81-18.22,18.22c-.35-.34-.71-.66-1.07-.98l-.11-.07c-.5-.42-1-.81-1.53-1.18v-.05ZM63.25,63.12l-9.48,9.51c-7.29,7.29-19.1,7.29-26.39,0-7.29-7.29-7.29-19.1,0-26.39h0l9.52-9.51c.46-.45,1.95-.82,4.03-.82,4.52.06,8.92,1.45,12.64,4l.08.06c.28.19.55.4.82.6l.22.17c.24.19.49.4.73.61l.26.21c.31.28.63.57.93.88l.05.05c.34.34.67.69,1,1.05l.21.24c.27.31.53.6.76.92l.16.2c.29.35.56.71.83,1.07v.05c.3.4.59.81.86,1.22l.16.24c1.72,2.58,2.87,5.49,3.4,8.54.75,4.05-.22,6.57-.78,7.09ZM73.76,32.79l-.33.32c-1.42-.46-2.94.31-3.4,1.73-.18.54-.18,1.13,0,1.67l-1.02,1.02c-1.41-.47-2.93.29-3.4,1.7-.18.55-.18,1.14,0,1.69l-4,3.99c-.69-.95-1.44-1.86-2.23-2.73l18.19-18.18-1.77,5.5c-.41,1.24-1.12,2.37-2.05,3.29Z"/>
      <path d="M34.82,47.57c-1.34-1.33-3.51-1.33-4.85,0-6.2,6.36-6.07,16.55.3,22.75,6.25,6.09,16.21,6.08,22.45,0,1.33-1.34,1.33-3.51,0-4.85l-17.9-17.9ZM51.17,68.76c-5.42,5.42-14.21,5.42-19.63,0-5.42-5.42-5.42-14.21,0-19.63h0c.23-.23.54-.36.87-.36.32,0,.63.13.86.36l17.9,17.91c.48.48.48,1.25,0,1.73v-.02Z"/>
    </g>
  </g>
</svg>