<?xml version="1.0" encoding="UTF-8"?>
<svg id="Layer_2" xmlns="http://www.w3.org/2000/svg" viewBox="0 0 100 100">
  <defs>
    <style>
      .cls-1 {
        opacity: .5;
      }

      .cls-2 {
        fill: #cfd0d2;
      }
    </style>
  </defs>
  <circle class="cls-2" cx="50" cy="50" r="49"/>
  <g id="Layer_2-2" data-name="Layer_2" class="cls-1">
    <g id="Layer_1-2">
      <path d="M45.14,45.83c-4.12,2.13-6.32,6.74-5.39,11.28.66,4.21,3.89,7.56,8.08,8.36.68.14,1.36.21,2.05.21,3.46-.02,6.68-1.81,8.52-4.74,2.83-4.12,2.34-9.66-1.17-13.22-3.16-3.26-8.09-4.03-12.09-1.89ZM56.54,59.69c-2.32,3.72-7.22,4.86-10.94,2.54-1.95-1.22-3.28-3.23-3.64-5.5h0c-.74-3.58.99-7.2,4.23-8.89,1.18-.62,2.49-.95,3.83-.96,2.13.01,4.16.89,5.63,2.43,2.75,2.79,3.13,7.15.89,10.37Z"/>
      <path d="M76.81,35.38v-.08c-.14-1.13-.31-2.4-1.07-3.11-.56-.48-1.29-.7-2.01-.6h-10.47c-1.77,0-2.4,1.36-2.68,2.68l-1.87-6.94c-.26-1.42-1.49-2.47-2.94-2.5h-10.62c-1.53-.1-2.93.87-3.38,2.33l-2.33,8.1h-15.85c-2.43.32-4.25,2.4-4.24,4.85v30.22c-.05,2.62,2.04,4.78,4.66,4.83,0,0,0,0,0,0h51.83c2.64.03,4.8-2.09,4.83-4.74,0-.03,0-.06,0-.09v-30.22c.02-2.3-1.59-4.29-3.85-4.74ZM78.44,70.34c.01,1.41-1.12,2.57-2.54,2.58-.02,0-.03,0-.05,0H24.01c-1.37-.07-2.43-1.22-2.4-2.58v-30.22c.02-1.28.95-2.37,2.22-2.59h17.29l2.76-9.58c.12-.58.68-.96,1.27-.86h10.62c.43,0,.68.41.78.78l2.61,9.64h3.25l.13-.96c0-.22.05-.44.08-.68.16-1.35.31-2.08.66-2.08h10.89c.22.57.35,1.17.39,1.77.05.36.09.72.16,1.03l.18.9h.93c1.41-.04,2.59,1.07,2.64,2.48,0,.05,0,.1,0,.15v30.22Z"/>
      <path d="M55.79,40.87l-.09-.04c-1.87-.69-3.83-1.07-5.82-1.11-2.03.02-4.03.41-5.92,1.15-3.64,1.55-6.5,4.5-7.93,8.18-1.58,3.89-1.58,8.25,0,12.14,1.42,3.71,4.3,6.67,7.96,8.21,1.87.78,3.88,1.18,5.9,1.19,2.02,0,4.03-.41,5.89-1.2,3.59-1.6,6.44-4.51,7.96-8.14h0c1.59-3.92,1.59-8.29,0-12.21-1.5-3.64-4.35-6.57-7.96-8.17ZM61.68,60.38c-1.28,3.1-3.7,5.59-6.77,6.95-3.21,1.36-6.84,1.36-10.05,0-3.1-1.3-5.53-3.8-6.75-6.94-1.36-3.39-1.36-7.17,0-10.55,1.21-3.1,3.62-5.59,6.69-6.9,1.62-.64,3.34-.97,5.08-1,1.73.04,3.44.37,5.06.98,3.04,1.37,5.45,3.84,6.73,6.92,1.37,3.38,1.38,7.15,0,10.53Z"/>
      <path d="M55.18,28.66h-10.04v8.13h10.04v-8.13ZM52.93,34.55h-5.55v-3.64h5.55v3.64Z"/>
    </g>
  </g>
</svg>