<?xml version="1.0" encoding="UTF-8"?>
<svg id="Layer_2" xmlns="http://www.w3.org/2000/svg" viewBox="0 0 100 100">
  <defs>
    <style>
      .cls-1 {
        opacity: .5;
      }

      .cls-2 {
        fill: #cfd0d2;
      }
    </style>
  </defs>
  <circle class="cls-2" cx="50" cy="50" r="49"/>
  <g id="Layer_1-2" class="cls-1">
    <g>
      <path d="M76.44,38.33c-.61,0-1.12.5-1.12,1.12v35.05l-15.99,4.32,13.15-6.67v-36.17l-22.46,11.16-22.31-11.07-.17-.08v36.16l13.16,6.67-16.01-4.32v-35.04c0-.61-.5-1.12-1.12-1.12s-1.12.5-1.12,1.12v35.91c0,.5.34.94.83,1.08l24.09,6.5,2.63.71,26.72-7.21c.48-.13.83-.58.83-1.08v-35.92c0-.61-.5-1.12-1.12-1.12h0ZM70.24,39.59v31.18l-18.85,9.56v-31.39l18.85-9.36h0ZM48.63,48.96v31.38l-18.85-9.56v-31.18l18.85,9.36Z"/>
      <path d="M63.44,32.02l1.45-1.78-.09-.07c-8.48-6.89-20.85-6.96-29.41-.15l-.27.21,1.43,1.79.27-.21c7.72-6.14,18.88-6.09,26.54.13l.09.07Z"/>
      <path d="M31.85,24.86c10.62-8.45,25.98-8.37,36.51.18l.09.07,1.41-1.73-.09-.07c-11.34-9.22-27.88-9.3-39.31-.2l-.35.27,1.39,1.76.35-.28Z"/>
      <path d="M41.84,36.75l-.18.15,1.43,1.79.18-.15c3.93-3.14,9.63-3.11,13.54.07l.09.07,1.45-1.78-.09-.07c-4.74-3.85-11.64-3.88-16.41-.08Z"/>
    </g>
  </g>
</svg>