<?xml version="1.0" encoding="UTF-8"?>
<svg id="Layer_2" xmlns="http://www.w3.org/2000/svg" viewBox="0 0 100 100">
  <defs>
    <style>
      .cls-1 {
        opacity: .5;
      }

      .cls-2 {
        fill: #cfd0d2;
      }
    </style>
  </defs>
  <circle class="cls-2" cx="50" cy="50" r="49"/>
  <g id="Layer_2-2" data-name="Layer_2" class="cls-1">
    <g id="Layer_1-2">
      <path d="M50,18.67c-17.3,0-31.33,14.03-31.33,31.33s14.03,31.33,31.33,31.33,31.33-14.03,31.33-31.33h0c-.02-17.29-14.04-31.31-31.33-31.33ZM50,78.69c-15.85,0-28.69-12.85-28.69-28.69s12.85-28.69,28.69-28.69,28.69,12.85,28.69,28.69c-.02,15.84-12.85,28.68-28.69,28.69Z"/>
      <polygon points="51.25 24.94 48.61 24.94 48.61 52.67 62.53 52.67 62.53 50.03 51.25 50.03 51.25 24.94"/>
    </g>
  </g>
</svg>