<?xml version="1.0" encoding="UTF-8"?>
<svg id="Layer_2" xmlns="http://www.w3.org/2000/svg" viewBox="0 0 100 100">
  <defs>
    <style>
      .cls-1 {
        opacity: .5;
      }

      .cls-2 {
        fill: #cfd0d2;
      }
    </style>
  </defs>
  <circle class="cls-2" cx="50" cy="50" r="49"/>
  <g id="Layer_2-2" data-name="Layer_2" class="cls-1">
    <g id="Layer_1-2">
      <path d="M76.17,27.97c-12.16-14.46-33.74-16.32-48.2-4.15-14.46,12.16-16.32,33.74-4.15,48.2,5.84,6.95,14.21,11.28,23.25,12.06,1,.09,2,.13,3,.13,18.89-.04,34.18-15.39,34.14-34.28-.02-8.04-2.86-15.81-8.04-21.96ZM70.17,73.97c-13.24,11.12-32.99,9.4-44.11-3.84-11.12-13.24-9.4-32.99,3.84-44.11,13.22-11.1,32.93-9.41,44.06,3.78,11.14,13.24,9.44,33.01-3.79,44.16h0Z"/>
      <path d="M51.29,34.96c-3.99-.36-7.95.9-11,3.49-6.38,5.37-7.19,14.9-1.82,21.28,2.57,3.05,6.25,4.96,10.23,5.31.45.04.89.06,1.32.06,8.34-.04,15.07-6.83,15.03-15.17-.04-7.79-6-14.27-13.76-14.97ZM62.16,51.04c-.58,6.71-6.49,11.67-13.2,11.09-6.71-.58-11.67-6.49-11.09-13.2.58-6.71,6.49-11.67,13.2-11.09,3.21.28,6.19,1.82,8.27,4.29,2.09,2.47,3.11,5.68,2.82,8.91Z"/>
      <path d="M76.34,46.48c-1.66-1.95-4.57-2.2-6.54-.56-1.97,1.66-2.22,4.61-.55,6.58.8.94,1.93,1.53,3.16,1.64h.41c2.58,0,4.67-2.1,4.66-4.68,0-1.1-.39-2.16-1.1-3l-.04.02ZM73.92,50.85c-.36.31-.83.46-1.3.42-.98-.09-1.71-.95-1.63-1.94.04-.47.27-.91.63-1.21.75-.64,1.88-.54,2.51.22s.54,1.88-.22,2.52Z"/>
      <path d="M70.72,41.92l1.78-.73c-1.56-3.98-4.17-7.47-7.55-10.08-1.29-.99-2.68-1.84-4.15-2.54l-.88,1.71c1.38.64,2.68,1.43,3.88,2.35,3.11,2.41,5.5,5.62,6.92,9.29Z"/>
      <path d="M73.68,40.7l1.78-.73c-2.46-6.24-7.14-11.34-13.15-14.31l-.88,1.71c1.55.75,3.01,1.66,4.37,2.71,3.54,2.76,6.27,6.43,7.88,10.62Z"/>
      <path d="M62.98,33.66c-1.13-.87-2.35-1.62-3.64-2.23l-.88,1.71c4.26,2.01,7.58,5.59,9.26,10l1.78-.73c-1.34-3.45-3.59-6.48-6.52-8.75Z"/>
    </g>
  </g>
</svg>