<?xml version="1.0" encoding="UTF-8"?>
<svg id="Layer_2" xmlns="http://www.w3.org/2000/svg" viewBox="0 0 100 100">
  <defs>
    <style>
      .cls-1 {
        opacity: .5;
      }

      .cls-2 {
        fill: #cfd0d2;
      }
    </style>
  </defs>
  <circle class="cls-2" cx="50" cy="50" r="49"/>
  <g id="Layer_2-2" data-name="Layer_2" class="cls-1">
    <g id="Layer_1-2">
      <path d="M71.76,16.93H26.3c-.9,0-1.63.73-1.63,1.63,0,0,0,0,0,0v63.2c0,.9.72,1.63,1.62,1.64,0,0,0,0,0,0h45.47c.9,0,1.64-.73,1.64-1.64h0V18.56c0-.9-.73-1.64-1.64-1.64h0ZM70.82,80.83H27.25V19.51h43.56v61.32Z"/>
      <path d="M32.8,35.58h31.64c.26-.01.46-.23.45-.49v-9.57c.01-.26-.19-.47-.45-.48,0,0,0,0,0,0h-31.64c-.26,0-.46.22-.46.48v9.57c-.01.26.19.48.46.49h0ZM34.92,27.65h27.37v5.36h-27.37v-5.36Z"/>
      <path d="M56.2,51.97h8.7v-8.66h-8.7v8.66ZM58.78,45.88h3.51v3.5h-3.51v-3.5Z"/>
      <path d="M32.89,63.64h8.68v-8.68h-8.68v8.68ZM35.47,57.54h3.5v3.51h-3.5v-3.51Z"/>
      <path d="M44.54,43.3v8.68h8.68v-8.68h-8.68ZM50.64,49.4h-3.51v-3.51h3.51v3.51Z"/>
      <path d="M44.54,63.64h8.68v-8.68h-8.68v8.68ZM47.13,57.54h3.52v3.51h-3.52v-3.51Z"/>
      <path d="M41.57,43.3h-8.68v8.68h8.68v-8.68ZM38.97,49.4h-3.5v-3.51h3.5v3.51Z"/>
      <path d="M32.89,75.29h8.69v-8.68h-8.69v8.68ZM35.47,69.2h3.5v3.52h-3.5v-3.52Z"/>
      <path d="M44.55,75.29h8.67v-8.68h-8.67v8.68ZM47.14,69.2h3.5v3.52h-3.5v-3.52Z"/>
      <path d="M60.07,54.95h-3.87v20.35h8.7v-20.35h-4.83ZM62.3,72.72h-3.52v-15.2h3.51v15.2Z"/>
    </g>
  </g>
</svg>