<?xml version="1.0" encoding="UTF-8"?>
<svg id="Layer_2" xmlns="http://www.w3.org/2000/svg" viewBox="0 0 100 100">
  <defs>
    <style>
      .cls-1 {
        opacity: .5;
      }

      .cls-2 {
        fill: #cfd0d2;
      }
    </style>
  </defs>
  <circle class="cls-2" cx="50" cy="50" r="49"/>
  <g class="cls-1">
    <path d="M84.22,40.9c-.85-5.83-3.91-11.16-8.4-14.59-6.65-5.09-15.61-5.16-22.3-.17-1.52,1.14-2.85,2.5-3.89,4-1.05-1.51-2.37-2.86-3.89-4-6.69-5-15.65-4.93-22.3.17-4.49,3.44-7.55,8.75-8.4,14.58-.17,1.14-.25,2.29-.25,3.45,0,6.08,2.36,11.96,6.48,16.13l.86.87c1.39,1.41,2.84,2.87,4.27,4.39l23.24,21.55,23.3-21.62c1.37-1.46,2.82-2.92,4.21-4.33l.86-.87c4.12-4.17,6.48-10.05,6.48-16.13,0-1.15-.09-2.32-.25-3.45h-.02ZM71.13,63.88l-21.51,19.95-21.45-19.89c-1.29-1.37-2.63-2.73-3.94-4.05h8.05l3.59-11.57,4.9,20.79,4.48-15.99,2.11,6.66,27.85-.08c-1.37,1.38-2.78,2.8-4.08,4.19h0ZM77.55,57.14l-28.34.08-4.12-13-4.12,14.7-4.78-20.27-5.8,18.7h-8.55c-2.9-3.56-4.54-8.2-4.54-12.98,0-1.03.07-2.07.22-3.08.76-5.18,3.46-9.9,7.43-12.94,2.91-2.22,6.32-3.34,9.73-3.34s6.66,1.07,9.51,3.19c1.82,1.37,3.3,3.09,4.29,5.01l1.13,2.2,1.13-2.2c.98-1.9,2.46-3.64,4.28-5,5.76-4.31,13.5-4.25,19.24.15,3.97,3.03,6.68,7.75,7.43,12.94h0c.15,1.01.22,2.05.22,3.08,0,4.7-1.58,9.24-4.37,12.78v-.02Z"/>
  </g>
</svg>