<?xml version="1.0" encoding="UTF-8"?>
<svg id="Layer_2" xmlns="http://www.w3.org/2000/svg" viewBox="0 0 100 100">
  <defs>
    <style>
      .cls-1 {
        opacity: .5;
      }

      .cls-2 {
        fill: #cfd0d2;
      }
    </style>
  </defs>
  <circle class="cls-2" cx="50" cy="50" r="49"/>
  <g id="Layer_2-2" data-name="Layer_2" class="cls-1">
    <g id="Layer_1-2">
      <path d="M82.81,36.25h-7.05v-6.53l-51.05-7.9-.36,2.33,49.04,7.63v4.48H17.19v32.54h3.63v3.27h58.36v-3.27h3.63v-32.54ZM76.8,69.72H23.17v-.82h53.63v.82ZM80.42,66.46H19.54v-27.85h60.91l-.03,27.85Z"/>
      <path d="M66.79,63.63c6.14,0,11.11-4.98,11.11-11.11s-4.98-11.11-11.11-11.11-11.11,4.98-11.11,11.11c0,6.14,4.98,11.11,11.11,11.11ZM66.79,43.76c4.83,0,8.75,3.94,8.74,8.77,0,4.83-3.94,8.75-8.77,8.74-4.83,0-8.74-3.93-8.74-8.75,0-4.84,3.93-8.76,8.77-8.75h0Z"/>
      <rect x="24.54" y="42.97" width="25.46" height="2.36"/>
      <rect x="24.54" y="48.55" width="25.46" height="2.36"/>
      <rect x="24.54" y="54.13" width="25.46" height="2.36"/>
      <rect x="24.54" y="59.71" width="25.46" height="2.36"/>
    </g>
  </g>
</svg>