<?xml version="1.0" encoding="UTF-8"?>
<svg id="Layer_2" xmlns="http://www.w3.org/2000/svg" viewBox="0 0 100 100">
  <defs>
    <style>
      .cls-1 {
        opacity: .5;
      }

      .cls-2 {
        fill: #cfd0d2;
      }
    </style>
  </defs>
  <circle class="cls-2" cx="50" cy="50" r="49"/>
  <g id="Layer_2-2" data-name="Layer_2" class="cls-1">
    <g id="Layer_1-2">
      <path d="M64.02,22.78c-.67-.87-1.71-1.38-2.81-1.38h-21.97c-1.1,0-2.14.51-2.81,1.38-.68.86-.92,1.99-.64,3.06l5.52,21.74v28.45c0,2.17,1.76,3.94,3.94,3.94h9.97c2.17,0,3.94-1.76,3.94-3.94h0v-28.45l5.52-21.74c.27-1.06.04-2.19-.64-3.06ZM56.77,70.26h-13.12v-21.65h13.12v21.65ZM43.41,46.23l-3.75-14.76h21.12l-3.75,14.76h-13.63ZM55.21,77.59h-9.97c-.86,0-1.57-.7-1.57-1.57h0v-3.39h13.12v3.39c0,.87-.71,1.57-1.58,1.57h0ZM62.37,25.25l-.98,3.89h-22.32l-.99-3.89c-.09-.36,0-.74.22-1.02.22-.29.57-.46.94-.46h21.97c.37,0,.72.17.94.46.23.29.31.67.21,1.02Z"/>
      <path d="M50.22,66.31c2.34,0,4.24-1.9,4.24-4.24s-1.9-4.24-4.24-4.24-4.24,1.9-4.24,4.24h0c0,2.34,1.9,4.23,4.24,4.24ZM50.22,60.2c1.03,0,1.87.84,1.87,1.87s-.84,1.87-1.87,1.87-1.87-.84-1.87-1.87h0c0-1.03.84-1.87,1.87-1.87Z"/>
    </g>
  </g>
</svg>