<?xml version="1.0" encoding="UTF-8"?>
<svg id="Layer_2" xmlns="http://www.w3.org/2000/svg" viewBox="0 0 100 100">
  <defs>
    <style>
      .cls-1 {
        opacity: .5;
      }

      .cls-2 {
        fill: #cfd0d2;
      }
    </style>
  </defs>
  <circle class="cls-2" cx="50" cy="50" r="49"/>
  <g id="Layer_1-2" class="cls-1">
    <g>
      <rect x="21.8" y="24.88" width="2.19" height="3.82" transform="translate(-12.24 24.04) rotate(-45)"/>
      <rect x="32.61" y="35.69" width="2.19" height="3.82" transform="translate(-16.72 34.85) rotate(-45)"/>
      <rect x="38.01" y="41.08" width="2.19" height="3.82" transform="translate(-18.95 40.24) rotate(-45)"/>
      <rect x="27.21" y="30.29" width="2.19" height="3.82" transform="translate(-14.48 29.44) rotate(-45)"/>
      <path d="M84.08,64.92l-1.55-5.28-.86.25c-1.35-6.99-4.32-13.66-8.52-19.04-1.36-1.75-3.5-4.17-6.23-4.99-2.63-.79-5.99.27-7.04,3.41-1.42,4.22,1.97,7.22,5.88,10.17.92.7,1.84,1.37,2.75,2.02,3.56,2.6,6.93,5.05,9.83,8.61.09.11.24.36.4.67l-.87.25,1.55,5.28c.19.65.8,1.05,1.44,1.02,0,.7-.04,1.41-.16,2.1-.2,1.19-.6,2.29-1.11,3.15-.04-.04-.07-.09-.11-.13l-28.86-28.86c-1.33-1.33-3.48-1.33-4.81,0l-5.62,5.62c-.64.64-1,1.49-1,2.4s.36,1.76,1,2.4l28.86,28.86c.66.66,1.54,1,2.4,1s1.74-.34,2.4-1l5.62-5.62c.6-.6.93-1.38.98-2.22,1.16-1.19,2.03-3.09,2.4-5.23.17-.99.22-2.04.17-3.05l.09-.03c.76-.22,1.19-1.01.96-1.77h0ZM69.79,49.7c-.9-.66-1.8-1.31-2.72-2-4.67-3.52-5.91-5.4-5.13-7.73.5-1.48,1.87-2.18,3.23-2.18.38,0,.76.06,1.11.16,2.14.64,3.95,2.72,5.13,4.24,3.39,4.35,5.95,9.58,7.42,15.14-2.77-3.06-5.84-5.29-9.06-7.64h0ZM41.37,51.58c0-.33.12-.63.36-.86l5.62-5.62c.24-.24.55-.36.86-.36s.62.12.86.36l2.29,2.29-7.34,7.34-2.29-2.29c-.23-.23-.36-.53-.36-.86ZM45.56,56.28l7.34-7.34.78.78-7.34,7.34-.78-.78ZM77.93,75.68l-5.62,5.62c-.47.47-1.25.47-1.72,0l-22.7-22.7,7.34-7.34,22.7,22.7c.23.23.36.53.36.86s-.12.63-.36.86Z"/>
      <path d="M61.89,61.2c-2.29,0-4.16,1.86-4.16,4.16s1.86,4.16,4.16,4.16,4.16-1.86,4.16-4.16-1.86-4.16-4.16-4.16ZM61.89,67.33c-1.09,0-1.97-.89-1.97-1.97s.89-1.97,1.97-1.97,1.97.89,1.97,1.97-.89,1.97-1.97,1.97Z"/>
    </g>
  </g>
</svg>