<?xml version="1.0" encoding="UTF-8"?>
<svg id="Layer_2" xmlns="http://www.w3.org/2000/svg" viewBox="0 0 100 100">
  <defs>
    <style>
      .cls-1 {
        opacity: .5;
      }

      .cls-2 {
        fill: #cfd0d2;
      }
    </style>
  </defs>
  <circle class="cls-2" cx="50" cy="50" r="49"/>
  <g id="Layer_2-2" data-name="Layer_2" class="cls-1">
    <g id="Layer_1-2">
      <path d="M56.8,47.84h-3.51c-1.38,0-2.5,1.12-2.5,2.5s1.12,2.5,2.5,2.5h3.51c1.38,0,2.5-1.12,2.51-2.5s-1.12-2.5-2.5-2.51c0,0,0,0,0,0Z"/>
      <path d="M47.21,47.84h-3.51c-1.38,0-2.5,1.12-2.5,2.5s1.12,2.5,2.5,2.5h3.51c1.38,0,2.5-1.12,2.51-2.5s-1.12-2.5-2.5-2.51c0,0,0,0,0,0Z"/>
      <path d="M71.55,35.71l-14.33-.08c-.35-1.77-1.9-3.04-3.71-3.05h-6.52c-1.81,0-3.37,1.27-3.72,3.05l-14.26.07h-.09c-8.73.89-15.09,8.69-14.2,17.42.89,8.73,8.69,15.09,17.42,14.2,5.59-.57,10.47-4.05,12.82-9.16h10.51c3.67,7.97,13.1,11.46,21.07,7.79,7.97-3.67,11.46-13.1,7.79-21.07-2.35-5.11-7.23-8.6-12.83-9.17h.03ZM69.92,64.83c-5.47.02-10.39-3.33-12.39-8.43l-.32-.82h-13.95l-.32.82c-2.7,6.84-10.43,10.19-17.27,7.5s-10.19-10.43-7.5-17.27c1.82-4.6,6.04-7.82,10.96-8.35l17.02-.09-.36-1.56c0-.09,0-.18,0-.27-.01-.33.11-.65.35-.89.24-.23.56-.36.89-.35h6.52c.66,0,1.2.54,1.2,1.2,0,.01,0,.02,0,.04,0,.09,0,.18,0,.27l-.35,1.56,17.01.09c7.31.76,12.63,7.3,11.87,14.61-.71,6.84-6.51,12.02-13.39,11.94Z"/>
      <path d="M70.43,53.55c-1.78,0-3.23,1.44-3.23,3.23,0,1.78,1.44,3.23,3.23,3.23s3.23-1.44,3.23-3.23-1.44-3.23-3.23-3.23h0ZM70.43,57.43c-.36,0-.65-.29-.65-.65,0-.36.29-.65.65-.65.36,0,.65.29.65.65,0,.36-.29.65-.65.65h0Z"/>
      <path d="M33.97,43.5h-7.92v3.4h-3.4v7.96h3.4v3.4h7.92v-3.4h3.41v-7.93h-3.41v-3.43ZM34.8,49.52v2.78h-3.4v3.37h-2.78v-3.4h-3.41v-2.74h3.41v-3.45h2.78v3.45h3.4Z"/>
      <path d="M68.88,52c0-1.78-1.44-3.23-3.23-3.23-1.78,0-3.23,1.44-3.23,3.23,0,1.78,1.44,3.23,3.23,3.23,0,0,0,0,0,0,1.78,0,3.22-1.44,3.22-3.22,0,0,0,0,0,0ZM65.66,52.65c-.36,0-.65-.29-.65-.65s.29-.65.65-.65c.36,0,.65.29.65.65h0c0,.36-.29.65-.65.65Z"/>
      <path d="M70.43,50.45c1.78.02,3.25-1.4,3.27-3.18.02-1.78-1.4-3.25-3.18-3.27-1.78-.02-3.25,1.4-3.27,3.18,0,.02,0,.04,0,.05,0,1.76,1.42,3.19,3.18,3.22ZM70.43,46.59c.36,0,.65.29.65.65,0,.36-.29.65-.65.65-.36,0-.65-.29-.65-.65,0-.36.29-.65.65-.65Z"/>
      <path d="M75.2,48.79c-1.78,0-3.23,1.44-3.23,3.22,0,1.78,1.44,3.23,3.22,3.23,1.78,0,3.23-1.44,3.23-3.22,0,0,0-.01,0-.02,0-1.78-1.44-3.22-3.22-3.22h0ZM75.2,52.65c-.36,0-.65-.29-.65-.65s.29-.65.65-.65c.36,0,.65.29.65.65s-.29.65-.65.65h0Z"/>
    </g>
  </g>
</svg>