<?xml version="1.0" encoding="UTF-8"?>
<svg id="Layer_2" xmlns="http://www.w3.org/2000/svg" viewBox="0 0 100 100">
  <defs>
    <style>
      .cls-1 {
        opacity: .5;
      }

      .cls-2 {
        fill: #cfd0d2;
      }
    </style>
  </defs>
  <circle class="cls-2" cx="50" cy="50" r="49"/>
  <g class="cls-1">
    <path d="M56.45,71.53c0,3.56-2.9,6.46-6.46,6.46s-6.46-2.9-6.46-6.46c0-2.44,1.4-4.66,3.54-5.74v2.86c-.74.76-1.2,1.79-1.2,2.89,0,2.27,1.84,4.12,4.12,4.12s4.12-1.84,4.12-4.12c0-1.12-.45-2.15-1.2-2.9v-2.86c2.15,1.09,3.54,3.29,3.54,5.76h0ZM51.16,63.05h-2.34v7.02h2.34v-7.02ZM62.97,44.83v35.8h0v.09h0c-.15,3.37-8.19,4.27-12.96,4.27s-12.83-.91-12.98-4.27h0v-.09h0v-35.8h0v-.1h0c.11-2.25,3.73-3.4,7.54-3.91-1.32-1.36-2.14-3.22-2.14-5.26,0-3.68,5.84-16.72,6.5-18.19l1.07-2.37,1.07,2.37c.66,1.48,6.5,14.52,6.5,18.19,0,2.05-.82,3.9-2.14,5.26,3.81.52,7.43,1.66,7.54,3.91h0v.1h0ZM48.31,40.5c.17,0,.34-.02.51-.02v-4.92h2.34v4.92c.17,0,.34,0,.52.02,2.05-.7,3.54-2.65,3.54-4.94,0-2.09-2.82-9.28-5.23-14.81-2.4,5.53-5.23,12.73-5.23,14.81,0,2.29,1.48,4.23,3.54,4.94h0ZM39.41,44.83c.16.17.71.6,2.41,1.06l.84.23.02.87c0,.27,0,.45,0,.66v5.85c0,.53.43.96.95.96s.95-.43.95-.96v-6.99l1.29.13c1.34.13,2.73.2,4.11.2.42,0,.82,0,1.22-.02.13,0,.26,0,.38-.02.26,0,.51-.02.76-.03.15,0,.29-.02.44-.03.21-.02.42-.02.63-.05.15-.02.29-.02.43-.04.19-.02.38-.04.56-.05.14-.02.27-.03.41-.05.17-.02.34-.05.52-.07.13-.02.26-.04.38-.06.16-.02.31-.05.47-.08.13-.02.23-.05.35-.06.14-.02.28-.05.42-.09.11-.02.22-.05.32-.07.13-.03.26-.05.38-.09.1-.02.2-.05.29-.08.12-.03.23-.06.34-.09.09-.02.17-.05.26-.08.1-.03.2-.06.29-.09.08-.02.16-.05.23-.08.09-.03.17-.06.25-.09.07-.02.13-.05.2-.08.07-.03.14-.06.21-.09.05-.02.11-.05.16-.08.06-.03.12-.06.17-.09.05-.02.09-.05.13-.07.05-.03.09-.05.13-.09.03-.02.07-.05.1-.07s.06-.05.09-.08c.02-.02.05-.04.07-.06,0,0,0-.02.02-.02-.52-.59-3.35-1.74-8.6-1.98-.27.07-.54.13-.81.17v1.71h-2.34v-1.71c-.27-.05-.55-.1-.81-.17-5.26.24-8.09,1.39-8.6,1.98h0ZM60.63,47.52s-.02,0-.02,0c-.33.15-.68.29-1.05.41-.03,0-.06.02-.1.03-.38.13-.77.23-1.19.34-.02,0-.04,0-.05.02-.41.1-.84.19-1.27.27-.03,0-.06.02-.09.02-.44.08-.88.15-1.33.21-.04,0-.08,0-.11.02-.45.06-.91.12-1.36.16h-.04c-.45.05-.9.08-1.34.11h-.09c-.44.02-.87.05-1.28.06h-.09c-.42.02-.83.02-1.21.02-1.02,0-2.05-.04-3.06-.11v4.41c0,1.82-1.48,3.31-3.3,3.31s-3.3-1.48-3.3-3.31v-5.6c-.3-.1-.65-.23-.99-.38v33.04c.41.64,3.91,2.09,10.64,2.09s10.22-1.45,10.63-2.09v-33.03Z"/>
  </g>
</svg>