<?xml version="1.0" encoding="UTF-8"?>
<svg id="Layer_2" xmlns="http://www.w3.org/2000/svg" viewBox="0 0 100 100">
  <defs>
    <style>
      .cls-1 {
        opacity: .5;
      }

      .cls-2 {
        fill: #cfd0d2;
      }
    </style>
  </defs>
  <circle class="cls-2" cx="50" cy="50" r="49"/>
  <g id="Layer_2-2" data-name="Layer_2" class="cls-1">
    <g id="Layer_1-2">
      <path d="M62.19,24.48l-.68-4.91c-.05-1.07-.92-1.91-1.99-1.91h-1.39c-1.07,0-1.95.84-2,1.91l-.61,4.47h-15.23c-4.12,0-7.46,3.35-7.47,7.47v43.37c0,4.12,3.35,7.46,7.47,7.47h19.42c4.12,0,7.46-3.35,7.47-7.47V31.51c-.01-3.16-2.01-5.97-4.98-7.02ZM58.43,20h.81l.56,4.05h-1.89l.53-4.05ZM64.81,74.87c0,2.83-2.3,5.13-5.14,5.13h-19.38c-2.83,0-5.13-2.3-5.13-5.13V31.51c0-2.83,2.3-5.13,5.13-5.13h19.42c2.83,0,5.13,2.3,5.14,5.13l-.04,43.37Z"/>
      <path d="M60.18,28.24h-20.39c-1.56,0-2.83,1.27-2.83,2.83v34.48c0,1.56,1.27,2.83,2.83,2.83h20.39c1.56,0,2.82-1.27,2.82-2.83V31.07c0-1.56-1.26-2.83-2.82-2.83ZM39.3,65.55V31.07c.02-.26.23-.46.49-.46h5.66c-.12,1.99.75,3.92,2.32,5.15.72.48,1.49.87,2.31,1.16.61.2,1.19.47,1.73.81.86.63,1.41,1.6,1.52,2.66.18,1.88-1.01,3.62-2.04,4.77-.55.61-1.14,1.17-1.77,1.76-.95.85-1.83,1.78-2.63,2.77-1,1.17-1.57,2.65-1.62,4.19.05.83.22,1.65.49,2.43.13.38.24.77.32,1.16.26,1.73-.16,3.5-1.18,4.92-1.02,1.42-2.26,2.67-3.68,3.69h-1.44c-.27,0-.49-.22-.49-.49,0,0,0-.02,0-.02ZM60.67,65.55c0,.27-.22.49-.49.49h-15.37c.77-.73,1.45-1.54,2.04-2.43,1.35-1.94,1.9-4.33,1.52-6.67-.1-.47-.23-.93-.38-1.39-.21-.57-.34-1.16-.39-1.76.06-1.01.45-1.97,1.12-2.73.73-.89,1.52-1.73,2.38-2.5.64-.6,1.29-1.21,1.9-1.89,1.34-1.49,2.9-3.83,2.63-6.55-.16-1.75-1.08-3.34-2.51-4.35-.69-.46-1.43-.83-2.22-1.09-.62-.2-1.22-.48-1.77-.83-.97-.78-1.49-2-1.37-3.24h12.41c.27,0,.49.22.49.49h0v34.45Z"/>
      <path d="M46.76,70.78h-6.92c-1.6,0-2.89,1.29-2.89,2.89v1c0,1.59,1.3,2.87,2.89,2.87h6.92c1.6,0,2.89-1.29,2.9-2.89v-.98c0-1.6-1.3-2.89-2.9-2.89ZM47.32,74.66c0,.3-.25.55-.55.55,0,0,0,0,0,0h-6.92c-.3,0-.55-.25-.55-.55h0v-1c0-.31.25-.55.55-.56h6.92c.31,0,.56.25.56.56h0v1Z"/>
      <path d="M60.11,70.78h-6.92c-1.6,0-2.89,1.29-2.89,2.89v1c0,1.59,1.3,2.87,2.89,2.87h6.92c1.6,0,2.89-1.29,2.89-2.89v-.98c0-1.6-1.29-2.89-2.89-2.89ZM60.67,74.66c0,.3-.25.55-.55.55,0,0,0,0,0,0h-6.92c-.3,0-.55-.24-.56-.54,0,0,0,0,0,0v-1c0-.31.25-.56.56-.56h6.92c.31,0,.56.25.56.56h0v1Z"/>
      <polygon points="53.87 63.16 58.25 63.16 56.06 54.94 53.87 63.16"/>
    </g>
  </g>
</svg>