<?xml version="1.0" encoding="UTF-8"?>
<svg id="Layer_2" xmlns="http://www.w3.org/2000/svg" viewBox="0 0 100 100">
  <defs>
    <style>
      .cls-1 {
        opacity: .5;
      }

      .cls-2 {
        fill: #cfd0d2;
      }
    </style>
  </defs>
  <circle class="cls-2" cx="50" cy="50" r="49"/>
  <g id="Layer_1-2" class="cls-1">
    <g>
      <path d="M79.9,69.58l-22.31-22.31c-2.84-2.84-6.01-5.38-9.4-7.53-7.61-4.83-14.78-10.4-21.34-16.58-.78-.73-1.55-1.47-2.31-2.22-.76-.75-1.98-.74-2.73,0s-.76,1.98,0,2.73c.76.77,1.89,1.9,2.22,2.25,5.83,6.02,11.16,12.59,15.84,19.53l1.7,2.52c1.8,2.67,3.85,5.2,6.09,7.51l22.79,23.54c1.3,1.3,3.01,1.95,4.72,1.95s3.42-.65,4.72-1.95c2.61-2.61,2.61-6.84,0-9.44ZM70.01,62.17l-6.83,6.83-10.63-10.97,6.65-6.65,10.8,10.8h0ZM23.05,22.44c-.07-.07-.07-.19,0-.27.04-.04.08-.05.13-.05s.1.02.13.05c.77.76,1.55,1.51,2.34,2.25,2.22,2.1,4.53,4.11,6.88,6.07l-1.04,1.04c-2-2.35-4.07-4.63-6.21-6.84-.33-.35-1.47-1.49-2.24-2.26ZM43.03,47l-1.7-2.52c-2.7-4-5.61-7.87-8.7-11.59l1.27-1.27c4.27,3.45,8.73,6.67,13.36,9.6,3.28,2.08,6.35,4.54,9.1,7.3l1.62,1.62-6.64,6.64-2.41-2.48c-2.17-2.24-4.15-4.68-5.9-7.27h0ZM78.66,77.78c-1.92,1.92-5.05,1.92-6.96.01l-7.31-7.55,6.85-6.85,7.42,7.42c1.92,1.92,1.92,5.05,0,6.97h0Z"/>
      <path d="M60.53,64.07c.43.43.92.76,1.3.89l.37.13.77-1.31-.56-.19c-.21-.07-.49-.27-.72-.49-.9-.9-.35-1.72.06-2.13.72-.72,1.51-.75,2.19-.08.21.21.38.47.45.68l.19.54,1.34-.73-.12-.38c-.05-.18-.24-.64-.81-1.21-1.3-1.3-3.13-1.3-4.44.01-1.29,1.29-1.3,3-.04,4.27h.01Z"/>
      <path d="M58.14,55.75c-.78.78-.78,2.05,0,2.82s2.05.78,2.82,0,.78-2.05,0-2.82-2.05-.78-2.82,0ZM60.05,57.66c-.27.27-.72.27-.99,0s-.27-.72,0-.99.72-.27.99,0c.27.27.27.72,0,.99Z"/>
    </g>
  </g>
</svg>