<?xml version="1.0" encoding="UTF-8"?>
<svg id="Layer_2" xmlns="http://www.w3.org/2000/svg" viewBox="0 0 100 100">
  <defs>
    <style>
      .cls-1 {
        opacity: .5;
      }

      .cls-2 {
        fill: #cfd0d2;
      }
    </style>
  </defs>
  <circle class="cls-2" cx="50" cy="50" r="49"/>
  <g id="Layer_1-2" class="cls-1">
    <g>
      <path d="M60.68,16.34c-6.99-1.74-14.37-1.74-21.36,0-1.99.5-3.38,2.27-3.38,4.32v58.67c0,2.05,1.39,3.83,3.38,4.33,3.5.87,7.08,1.31,10.68,1.31s7.19-.43,10.68-1.31c1.99-.5,3.38-2.27,3.38-4.33V20.66c0-2.05-1.39-3.83-3.38-4.33h0ZM61.98,79.33c0,1.1-.74,2.05-1.8,2.31-6.66,1.66-13.7,1.66-20.36,0-1.06-.27-1.8-1.22-1.8-2.31V20.66c0-1.1.74-2.05,1.8-2.31,3.33-.83,6.75-1.24,10.17-1.24s6.85.41,10.18,1.24c1.06.27,1.8,1.22,1.8,2.31,0,0,0,58.67,0,58.67Z"/>
      <path d="M43,31.51h1.2v-5.06h-1.02l-.04.2c-.02.08-.07.34-.7.38h-.24v.99h.8v3.48h0Z"/>
      <path d="M51.95,30.33h-2.27c.14-.21.41-.43.96-.76.77-.45,1.27-.82,1.27-1.69,0-.94-.67-1.5-1.8-1.5-.62,0-1.27.26-1.73.69l-.18.17.77.92.2-.19c.24-.23.6-.38.92-.38.61,0,.61.24.61.34,0,.17-.04.31-.64.66-.92.55-1.82,1.2-1.87,2.66v.27h3.78v-1.18h0Z"/>
      <path d="M58.42,28.74c.22-.24.33-.55.33-.94,0-.88-.74-1.49-1.81-1.49-.62,0-1.15.23-1.6.69l-.18.19.88.84.18-.19c.22-.23.45-.34.71-.34.37,0,.59.13.59.36,0,.13-.05.36-.38.36h-.67v1.18h.68c.37,0,.57.14.57.42,0,.18,0,.49-.73.49-.36,0-.7-.16-.91-.42l-.17-.21-.9.77.13.2c.35.52,1.09.87,1.85.87,1.22,0,1.96-.63,1.96-1.68,0-.47-.19-.85-.51-1.09h0Z"/>
      <path d="M43.53,42.25h1.18v-1.02h.6v-1.12h-.6v-2.92h-1.16l-2.48,3.06v1h2.45v1ZM43.53,39.02v1.1h-.86s.04-.06.06-.08l.8-1.02Z"/>
      <path d="M49.96,42.25c1.28,0,2.05-.7,2.05-1.87,0-1.03-.71-1.69-1.83-1.69-.24,0-.48.03-.69.09l.04-.49h2.2v-1.17h-3.29l-.19,2.65,1.03.41.12-.08c.22-.17.43-.23.72-.23.66,0,.66.41.66.55,0,.16,0,.66-.82.66-.36,0-.8-.12-1.15-.31l-.22-.13-.59,1,.21.13c.51.33,1.08.49,1.72.49h.01Z"/>
      <path d="M57.14,38.81c-.23,0-.43.02-.62.06.32-.41.81-.62,1.49-.65h.24v-1.17h-.27c-2.27.08-3.06,1.73-3.06,3.14,0,1.29.73,2.07,1.96,2.07s2.03-.69,2.03-1.77c0-1.02-.7-1.68-1.78-1.68ZM56.95,39.97c.77,0,.77.37.77.53,0,.48-.43.57-.8.57-.47,0-.78-.22-.78-.57s.27-.54.81-.54h0Z"/>
      <path d="M45.04,49v-1.05h-3.69v1.18h2.13c-.76,1.12-1.13,2.28-1.15,3.62v.27h1.2v-.25c.04-1.75.81-2.96,1.45-3.69l.06-.08Z"/>
      <path d="M50.05,53.01c1.27,0,2.06-.64,2.06-1.65,0-.49-.2-.89-.56-1.15.25-.24.36-.58.36-.86,0-1.06-.92-1.53-1.84-1.53-1.13,0-1.85.61-1.85,1.55,0,.26.1.59.36.85-.36.27-.56.66-.56,1.15,0,1.02.78,1.65,2.03,1.65h0ZM50.05,50.86c.84,0,.84.39.84.52,0,.45-.59.49-.84.49s-.83-.05-.83-.52c0-.32.28-.48.83-.48ZM50.07,49.69c-.32,0-.65-.11-.65-.36s.22-.38.64-.38c.24,0,.65.06.65.41,0,.2-.25.34-.64.34h0Z"/>
      <path d="M56.96,47.81c-1.24,0-2.03.69-2.03,1.77,0,1.02.7,1.68,1.78,1.68.23,0,.44-.02.62-.06-.32.41-.81.62-1.49.65h-.24v1.17h.27c2.26-.08,3.06-1.73,3.06-3.14,0-1.29-.73-2.07-1.96-2.07ZM56.91,50.1c-.77,0-.77-.37-.77-.53,0-.48.43-.57.8-.57.48,0,.78.22.78.57s-.27.54-.81.54h0Z"/>
      <path d="M52.8,57.51c-.19-.1-.41-.11-.62-.05-.2.07-.37.21-.47.4-.2.39-.04.88.36,1.08,1.56.79,2.53,2.36,2.53,4.11v6.76c0,2.54-2.06,4.61-4.61,4.61s-4.61-2.06-4.61-4.61v-6.76c0-2.21,1.57-4.11,3.74-4.52.43-.08.72-.5.64-.94-.04-.21-.16-.39-.34-.52-.17-.12-.39-.17-.6-.13-2.93.55-5.05,3.12-5.05,6.1v6.76c0,3.43,2.79,6.21,6.21,6.21s6.21-2.79,6.21-6.21v-6.76c0-2.36-1.31-4.48-3.41-5.55h0Z"/>
      <path d="M48.1,69.82c0-.45-.36-.81-.8-.81s-.8.36-.8.81c0,1.94,1.57,3.51,3.51,3.51s3.51-1.57,3.51-3.51v-6.76c0-1.94-1.57-3.51-3.51-3.51s-3.51,1.57-3.51,3.51v3.27c0,.44.36.8.8.8s.8-.36.8-.8v-3.27c0-1.05.85-1.9,1.9-1.9s1.9.85,1.9,1.9v6.76c0,1.05-.85,1.9-1.9,1.9s-1.9-.85-1.9-1.9Z"/>
      <path d="M50.81,69.82v-6.76c0-.44-.36-.8-.8-.8s-.8.36-.8.8v6.76c0,.44.36.8.8.8s.8-.36.8-.8Z"/>
    </g>
  </g>
</svg>