<?xml version="1.0" encoding="UTF-8"?>
<svg id="Layer_2" xmlns="http://www.w3.org/2000/svg" viewBox="0 0 100 100">
  <defs>
    <style>
      .cls-1 {
        fill: #ed1c24;
      }

      .cls-2 {
        fill: none;
        stroke: #fff;
        stroke-linecap: round;
        stroke-linejoin: round;
        stroke-width: 2.2px;
      }
    </style>
  </defs>
  <circle class="cls-1" cx="50" cy="50" r="49"/>
  <g>
    <circle class="cls-2" cx="50.76" cy="50" r="19.89"/>
    <circle class="cls-2" cx="50.76" cy="50" r="16.74"/>
    <polyline class="cls-2" points="50.12 35.66 50.12 50 56.64 50"/>
    <path class="cls-2" d="M50.76,26.55c4.44,0,8.56,1.31,12.05,3.53v-8.23c0-1.26-1.02-2.28-2.28-2.28h-20.57c-1.26,0-2.28,1.02-2.28,2.28v8.93c3.68-2.65,8.19-4.23,13.08-4.23Z"/>
    <path class="cls-2" d="M50.76,73.45c4.44,0,8.56-1.31,12.05-3.53v8.23c0,1.26-1.02,2.28-2.28,2.28h-20.57c-1.26,0-2.28-1.02-2.28-2.28v-8.93c3.68,2.65,8.19,4.23,13.08,4.23Z"/>
  </g>
</svg>