<?xml version="1.0" encoding="UTF-8"?>
<svg id="Layer_2" xmlns="http://www.w3.org/2000/svg" viewBox="0 0 100 100">
  <defs>
    <style>
      .cls-1 {
        fill: #ed1c24;
      }

      .cls-2 {
        fill: #fff;
      }
    </style>
  </defs>
  <circle class="cls-1" cx="50" cy="50" r="49"/>
  <g id="Layer_1-2">
    <path class="cls-2" d="M79.06,56.38c-.23-.36-.55-.66-.92-.86-.02-.02-.06-.02-.09-.04.78-3.98,1.97-12.28-.04-18.13,1.5-1.31,2.1-3.45,1.34-5.41-4.93-12.82-15.91-20.47-29.36-20.47s-24.41,7.65-29.35,20.47c-.47,1.21-.44,2.54.1,3.73.29.66.74,1.23,1.27,1.69-2.01,5.81-.91,13.79-.04,18.13-.4.19-.76.49-1,.89-.36.58-.47,1.28-.28,1.94l4.08,10.34c.21.7.73,1.25,1.35,1.53,1.05,2.64,2.52,5.46,3.84,7.34,4.46,6.31,10.3,7.94,14.14,8.26.06,1.55,1.13,2.73,2.45,2.73h.09l4.88-.2c1.36-.06,2.38-1.35,2.3-2.94l-.09-2.14c-.06-1.59-1.16-2.76-2.55-2.73l-4.88.2c-1.28.06-2.23,1.2-2.3,2.64-3.72-.36-8.39-2.01-12.09-7.23-1.08-1.52-2.26-3.72-3.19-5.9l.32-.03.06.4c.11.64.45,1.2.98,1.59.42.3.91.46,1.42.46.13,0,.26,0,.39-.03l5.67-.91c.52-.08.96-.36,1.27-.78.31-.42.43-.94.35-1.45l-2.77-17.24h0c-.08-.52-.36-.96-.78-1.27-.42-.31-.93-.43-1.45-.35l-5.67.91c-1.33.21-2.22,1.46-2.01,2.78l.08.51-1.61.16-.8.1c-.74-3.97-1.67-11.09-.21-16.7.4.11.81.18,1.22.18.67,0,1.34-.14,1.97-.42,1.19-.53,2.1-1.49,2.57-2.7,3.49-9.04,10.87-14.23,20.27-14.23s16.78,5.19,20.27,14.23c.72,1.87,2.55,3.12,4.54,3.12.42,0,.83-.07,1.25-.19,1.47,5.61.54,12.74-.21,16.71l-2.4-.29.08-.49c.11-.64-.05-1.29-.43-1.81s-.94-.87-1.59-.98l-5.67-.91c-.52-.08-1.03.04-1.45.35s-.7.75-.78,1.27l-2.77,17.24c-.08.52.04,1.03.35,1.45.31.42.76.7,1.27.78l5.67.91c.13.02.26.03.39.03.51,0,1-.16,1.42-.46.53-.38.87-.95.98-1.59l.06-.42,1.59.19c1.2.19,2.36-.54,2.7-1.66l4.04-10.26.04-.12c.19-.66.08-1.35-.28-1.94h0ZM46.52,83.13l4.68-.19c.05.06.11.2.12.4l.09,2.14c0,.2-.05.35-.09.41l-4.68.19c-.05-.06-.11-.2-.12-.4l-.09-2.14c0-.2.05-.35.09-.41ZM34.1,53.08l2.61,16.3-5.2.83-.15-.94-.11-.73h.02l-1.88-11.56h0l-.49-3.06,5.19-.84h0ZM25.15,57.4l1.81-.18,1.72,10.59-1.61.19-4.06-10.32,2.13-.27h0ZM72.53,34.57c-3.87-10.04-12.07-15.79-22.53-15.79s-18.66,5.76-22.53,15.79c-.23.61-.7,1.09-1.29,1.36-.6.27-1.26.28-1.87.05s-1.09-.7-1.36-1.29c-.27-.6-.28-1.26-.05-1.87,4.57-11.86,14.69-18.92,27.09-18.92s22.53,7.08,27.09,18.92c.49,1.25-.15,2.68-1.4,3.15-1.24.48-2.69-.19-3.16-1.4ZM68.5,70.21l-5.2-.83,2.61-16.3,5.2.84-.49,3h.03l-1.72,10.55h0l-.44,2.73h0ZM73,67.81s-.04.11-.11.15l-1.54-.19,1.72-10.57c1.13.13,1.57.18,1.75.19l2.17.27h0l-4,10.15h0ZM77.13,57.59l.51-.32h0l-.51.32h0ZM77.67,57.25h0l.36-.23-.36.23Z"/>
  </g>
</svg>