<?xml version="1.0" encoding="UTF-8"?>
<svg id="Layer_2" xmlns="http://www.w3.org/2000/svg" viewBox="0 0 100 100">
  <defs>
    <style>
      .cls-1 {
        fill: #ed1c24;
      }

      .cls-2 {
        fill: #fff;
      }
    </style>
  </defs>
  <circle class="cls-1" cx="50" cy="50" r="49"/>
  <g id="Layer_2-2" data-name="Layer_2">
    <g id="Layer_1-2">
      <path class="cls-2" d="M76.42,44.24h-2.23c-1.61,0-2.92,1.31-2.92,2.92h0v3l-7.42-4.44-.28-.2v-7.58l6.21-6.21-15.77-15.65L17.71,52.18l1.77,1.84-3.43,3.44,1.96,1.94-2.38,2.38,7.92,7.92,2.38-2.38,1.94,1.94,3.21-3.26,1.98,2.07,20.21-19.94c.48,2.21,1.74,4.54,4.98,6.62l13.02,7.7v9.1c-.04,1.63,1.24,2.98,2.87,3.03.02,0,.04,0,.06,0h2.23c1.63-.02,2.93-1.35,2.92-2.98,0-.02,0-.03,0-.05v-24.39c0-1.61-1.3-2.92-2.92-2.92ZM23.55,66.45l-4.69-4.68.73-.74,4.68,4.68-.72.74ZM27.85,66l-8.57-8.54,1.66-1.67,6.93,6.93,1.58,1.67-1.61,1.62ZM77.05,71.55c.04.36-.21.69-.57.73-.02,0-.04,0-.06,0h-2.23c-.36-.01-.65-.31-.64-.68,0-.02,0-.04,0-.06v-10.4l-14.09-8.34c-3.71-2.38-4.12-4.96-4.21-7.18l-.1-2.61-22.1,21.79-.39-.4.06-.06-3.24-3.24-8.57-8.9L54.03,19.31l12.52,12.43-5.26,5.25v9.51l.33.33c.31.29.65.56,1.01.79l10.93,6.58v-7.05c0-.35.27-.63.62-.63,0,0,.01,0,.02,0h2.23c.35,0,.63.27.63.62,0,0,0,.01,0,.02v24.39Z"/>
    </g>
  </g>
</svg>