<?xml version="1.0" encoding="UTF-8"?>
<svg id="Layer_2" xmlns="http://www.w3.org/2000/svg" viewBox="0 0 100 100">
  <defs>
    <style>
      .cls-1 {
        fill: #ed1c24;
      }

      .cls-2 {
        fill: #fff;
      }
    </style>
  </defs>
  <circle class="cls-1" cx="50" cy="50" r="49"/>
  <g>
    <path class="cls-2" d="M71.09,26.72H28.92c-5.37,0-9.73,4.37-9.73,9.73v27.1c0,5.37,4.37,9.73,9.73,9.73h42.16c5.37,0,9.73-4.37,9.73-9.73v-27.09c0-5.37-4.37-9.73-9.73-9.73h0ZM78.73,63.55c0,4.21-3.43,7.64-7.64,7.64H28.92c-4.21,0-7.64-3.43-7.64-7.64v-27.09c0-4.21,3.43-7.64,7.64-7.64h42.16c4.21,0,7.64,3.43,7.64,7.64v27.1h0Z"/>
    <path class="cls-2" d="M50,57.48c-2.54,0-4.61,2.07-4.61,4.61s2.07,4.61,4.61,4.61,4.61-2.07,4.61-4.61-2.07-4.61-4.61-4.61ZM50,64.6c-1.39,0-2.52-1.13-2.52-2.52s1.13-2.52,2.52-2.52,2.52,1.13,2.52,2.52-1.13,2.52-2.52,2.52Z"/>
    <path class="cls-2" d="M37.36,57.48c-2.54,0-4.61,2.07-4.61,4.61s2.07,4.61,4.61,4.61,4.61-2.07,4.61-4.61-2.07-4.61-4.61-4.61ZM37.36,64.6c-1.39,0-2.52-1.13-2.52-2.52s1.13-2.52,2.52-2.52,2.52,1.13,2.52,2.52-1.13,2.52-2.52,2.52Z"/>
    <path class="cls-2" d="M62.65,57.48c-2.54,0-4.61,2.07-4.61,4.61s2.07,4.61,4.61,4.61,4.61-2.07,4.61-4.61-2.07-4.61-4.61-4.61ZM62.65,64.6c-1.39,0-2.52-1.13-2.52-2.52s1.13-2.52,2.52-2.52,2.52,1.13,2.52,2.52-1.13,2.52-2.52,2.52Z"/>
    <path class="cls-2" d="M70.58,32.42H29.42c-2.58,0-4.68,2.1-4.68,4.68v11.62c0,2.58,2.1,4.68,4.68,4.68h41.15c2.58,0,4.68-2.1,4.68-4.68v-11.62c0-2.58-2.1-4.68-4.68-4.68ZM73.17,48.72c0,1.42-1.16,2.59-2.59,2.59H29.42c-1.42,0-2.59-1.16-2.59-2.59v-11.62c0-1.42,1.16-2.59,2.59-2.59h41.15c1.42,0,2.59,1.16,2.59,2.59,0,0,0,11.62,0,11.62Z"/>
    <polygon class="cls-2" points="40.8 41.41 40.8 39.63 38.95 37.78 38.95 41.89 39.64 42.6 40.8 41.41"/>
    <polygon class="cls-2" points="44.98 41.42 46.13 42.6 46.83 41.89 46.83 37.78 44.98 39.63 44.98 41.42"/>
    <polygon class="cls-2" points="40.8 44.45 39.64 43.29 38.95 43.99 38.95 48.37 40.8 46.53 40.8 44.45"/>
    <polygon class="cls-2" points="44.07 38.56 45.92 36.71 39.85 36.71 41.7 38.56 44.07 38.56"/>
    <polygon class="cls-2" points="41.98 47.31 40.13 49.16 45.64 49.16 43.79 47.31 41.98 47.31"/>
    <polygon class="cls-2" points="44.98 44.45 44.98 46.53 46.83 48.37 46.83 43.99 46.13 43.29 44.98 44.45"/>
    <polygon class="cls-2" points="30.79 41.41 30.79 39.63 28.94 37.78 28.94 41.89 29.63 42.6 30.79 41.41"/>
    <polygon class="cls-2" points="34.97 41.42 36.13 42.6 36.82 41.89 36.82 37.78 34.97 39.63 34.97 41.42"/>
    <polygon class="cls-2" points="30.79 44.45 29.63 43.29 28.94 43.99 28.94 48.37 30.79 46.53 30.79 44.45"/>
    <polygon class="cls-2" points="34.06 38.56 35.91 36.71 29.84 36.71 31.7 38.56 34.06 38.56"/>
    <polygon class="cls-2" points="31.98 47.31 30.13 49.16 35.63 49.16 33.78 47.31 31.98 47.31"/>
    <polygon class="cls-2" points="34.97 44.45 34.97 46.53 36.82 48.37 36.82 43.99 36.13 43.29 34.97 44.45"/>
    <polygon class="cls-2" points="65.09 41.41 65.09 39.63 63.24 37.78 63.24 41.89 63.93 42.6 65.09 41.41"/>
    <polygon class="cls-2" points="69.27 41.42 70.42 42.6 71.11 41.89 71.11 37.78 69.27 39.63 69.27 41.42"/>
    <polygon class="cls-2" points="65.09 44.45 63.93 43.29 63.24 43.99 63.24 48.37 65.09 46.53 65.09 44.45"/>
    <polygon class="cls-2" points="68.36 38.56 70.21 36.71 64.14 36.71 65.99 38.56 68.36 38.56"/>
    <polygon class="cls-2" points="66.27 47.31 64.42 49.16 69.93 49.16 68.07 47.31 66.27 47.31"/>
    <polygon class="cls-2" points="69.27 44.45 69.27 46.53 71.11 48.37 71.11 43.99 70.42 43.29 69.27 44.45"/>
    <polygon class="cls-2" points="55.08 41.41 55.08 39.63 53.23 37.78 53.23 41.89 53.92 42.6 55.08 41.41"/>
    <polygon class="cls-2" points="59.26 41.42 60.41 42.6 61.11 41.89 61.11 37.78 59.26 39.63 59.26 41.42"/>
    <polygon class="cls-2" points="55.08 44.45 53.92 43.29 53.23 43.99 53.23 48.37 55.08 46.53 55.08 44.45"/>
    <polygon class="cls-2" points="58.35 38.56 60.2 36.71 54.13 36.71 55.98 38.56 58.35 38.56"/>
    <polygon class="cls-2" points="56.27 47.31 54.42 49.16 59.92 49.16 58.07 47.31 56.27 47.31"/>
    <polygon class="cls-2" points="59.26 44.45 59.26 46.53 61.11 48.37 61.11 43.99 60.41 43.29 59.26 44.45"/>
    <rect class="cls-2" x="49.02" y="47.3" width="1.93" height="1.93"/>
    <rect class="cls-2" x="49.02" y="38.84" width="1.93" height="1.93"/>
  </g>
</svg>