<?xml version="1.0" encoding="UTF-8"?>
<svg id="Layer_2" xmlns="http://www.w3.org/2000/svg" viewBox="0 0 100 100">
  <defs>
    <style>
      .cls-1 {
        fill: #ed1c24;
      }

      .cls-2 {
        fill: #fff;
      }
    </style>
  </defs>
  <circle class="cls-1" cx="50" cy="50" r="49"/>
  <g>
    <path class="cls-2" d="M48.77,27.34c2.19,0,3.97-1.79,3.97-3.98s-1.78-3.97-3.97-3.97-3.98,1.79-3.98,3.97,1.79,3.98,3.98,3.98ZM48.77,21.74c.89,0,1.62.73,1.62,1.62s-.73,1.63-1.62,1.63-1.63-.73-1.63-1.63.73-1.62,1.63-1.62Z"/>
    <rect class="cls-2" x="70.33" y="51.5" width="2.35" height="3.32" transform="translate(-11.77 21.46) rotate(-15.79)"/>
    <rect class="cls-2" x="63.43" y="52.22" width="3.32" height="2.35" transform="translate(-7.64 95.81) rotate(-69.61)"/>
    <rect class="cls-2" x="75.91" y="48.34" width="2.35" height="3.32" transform="translate(-9.79 79.93) rotate(-51.98)"/>
    <rect class="cls-2" x="27.03" y="82.13" width="3.32" height="2.35" transform="translate(-58.77 93.99) rotate(-77.97)"/>
    <rect class="cls-2" x="33.91" y="81.46" width="2.35" height="3.32" transform="translate(-30.94 21.63) rotate(-24.15)"/>
    <rect class="cls-2" x="21.24" y="79.34" width="3.32" height="2.35" transform="translate(-47.8 35.7) rotate(-41.75)"/>
    <path class="cls-2" d="M71.84,66.79c-.22-.13-.44-.24-.67-.34l-1.72-6.59-3.82.99h-.04c-3.93.81-8.1,1.36-12.43,1.62-11.08.68-24.51-2.15-29.61-4.38,0-.02,0-.09.05-.19.04-.08.14-.21.38-.27,7.07-1.61,20.43-5.04,30.55-9.97,2.59-1.26,5.08-2.56,7.42-3.89.04.34.11.69.2,1.03.49,1.72,1.62,3.16,3.2,4.04,1.01.57,2.13.86,3.27.86.62,0,1.24-.09,1.84-.26,3.57-1.01,5.65-4.73,4.65-8.31-.47-1.64-1.5-3.02-2.95-3.89,2.23-1.64,4.14-3.24,5.67-4.76.9-.9,1.09-2.19.45-3.19-.63-1.01-1.87-1.41-3.08-.98-1.57.55-3.56,1.21-5.82,1.9l-4.31,1.22-.09.02c-4.53,1.19-9.59,2.23-14.23,2.52-10.2.63-19.62-.42-25.23-2.81,0-.02,0-.09.05-.2.04-.08.16-.22.38-.26,4.15-.83,10.11-2.16,14.99-3.84l.72,2.81c.41,1.58,1.83,2.63,3.39,2.63.29,0,.58-.04.87-.12l9.69-2.51c.9-.23,1.66-.8,2.14-1.61.47-.8.6-1.74.37-2.65l-2.05-7.95c-.49-1.87-2.4-2.99-4.26-2.51l-9.7,2.51c-1.86.48-2.99,2.39-2.5,4.26l.74,2.87c-4.8,1.67-10.72,2.99-14.85,3.81-1.25.25-2.19,1.27-2.33,2.48-.11,1.07.46,2.04,1.45,2.46,1.11.48,2.35.9,3.71,1.27l-.78,4.72c-.22.12-.43.25-.63.4-1.46,1.04-2.43,2.59-2.72,4.37-.3,1.77.12,3.56,1.16,5.02,1.05,1.47,2.6,2.43,4.37,2.73.37.06.74.09,1.12.09,1.39,0,2.74-.43,3.89-1.25.73-.53,1.33-1.18,1.79-1.91.46-.74.78-1.58.92-2.46.3-1.77-.12-3.55-1.16-5.02-.15-.2-.3-.4-.47-.58l.77-4.62c4.37.46,9.24.56,14.29.24,3.58-.22,7.38-.87,11.01-1.69l1.25,4.43c-.16.2-.28.41-.41.63-.22.39-.4.8-.53,1.21-2.71,1.58-5.64,3.14-8.73,4.65-9.9,4.83-23.07,8.21-30.04,9.79-1.22.28-2.12,1.28-2.24,2.48-.1,1.06.46,2.01,1.43,2.44,1.59.71,3.73,1.39,6.21,2.01l-1,4.66c-.22.11-.44.24-.65.37-1.5.98-2.55,2.48-2.92,4.25-.38,1.76-.05,3.55.93,5.06.97,1.5,2.48,2.54,4.24,2.92.47.1.95.15,1.42.15,1.29,0,2.54-.37,3.64-1.08,1.51-.98,2.55-2.48,2.92-4.24.44-2.08-.13-4.14-1.39-5.67l1.03-4.79c4.17.63,8.61,1.03,12.73,1.03,1.2,0,2.37-.04,3.5-.11,2.92-.18,5.76-.48,8.51-.9l1.21,4.66c-1.18,1.58-1.66,3.67-1.13,5.72.45,1.74,1.56,3.2,3.1,4.11,1.05.62,2.22.93,3.4.93.56,0,1.14-.07,1.7-.22,1.74-.45,3.2-1.55,4.11-3.1s1.17-3.36.71-5.1c-.45-1.74-1.55-3.2-3.1-4.11ZM42.73,19.73l9.69-2.51c.09-.02.19-.03.28-.03.51,0,.97.34,1.11.85l2.06,7.96c.07.29.03.6-.13.86-.16.26-.4.45-.7.53l-9.69,2.51c-.6.16-1.23-.21-1.39-.82l-2.06-7.95c-.16-.61.21-1.24.82-1.39ZM33.78,38.85l-1.73-.29-.2-.03-1.71-.28.49-2.95,3.64.61-.49,2.95ZM35.17,45.9c-.2,1.15-.82,2.16-1.78,2.84-.95.67-2.11.95-3.26.75-1.15-.19-2.16-.82-2.84-1.77-.67-.95-.95-2.11-.75-3.27.19-1.15.82-2.16,1.77-2.84.3-.21.6-.38.93-.51l-.6,3.63,1.54.26.7-4.19h0c.23,0,.46.02.69.05s.45.09.67.17h0l-.7,4.19,1.54.26.6-3.63h0c.27.23.5.49.71.78.68.96.95,2.12.76,3.27h0ZM65.03,36.99l-.82-2.88,1.34-.38.07-.02h0c.73-.2,1.45-.39,2.15-.59l.81,2.86-1.78.5-1.78.5ZM64.29,42.41c.07-.55.25-1.08.53-1.58.17-.31.38-.6.63-.85l.42,1.49.58,2.05,1.5-.43-.71-2.48-.45-1.6c.2-.1.42-.18.65-.24.22-.06.45-.11.67-.14l.34,1.2.82,2.89,1.51-.42-.96-3.39s.09-.06.14-.09c.27.09.54.2.8.34,1.02.57,1.76,1.5,2.08,2.63.66,2.32-.7,4.74-3.02,5.4-1.13.32-2.31.18-3.33-.39-1.02-.56-1.76-1.5-2.08-2.63-.16-.58-.2-1.17-.13-1.74h0ZM75.99,30.52c.16-.05.27-.05.31,0,.04.05-.02.16-.13.27-1.44,1.43-3.24,2.95-5.34,4.5l-.8-2.84c2.31-.7,4.35-1.38,5.95-1.94ZM31.09,63.05l3.61.77-.62,2.92-1.81-.38-1.8-.38.62-2.92ZM35.15,73.85c-.24,1.14-.92,2.12-1.9,2.76s-2.16.85-3.29.61c-1.14-.24-2.12-.92-2.77-1.9-.63-.98-.85-2.15-.6-3.29s.92-2.12,1.9-2.76c.31-.2.63-.35.96-.46l-.77,3.6,1.54.33.89-4.15h0c.2,0,.41.02.61.06l.16.04c.2.04.4.1.58.18h0l-.89,4.15,1.54.33.77-3.59h0c.86.82,1.38,1.96,1.38,3.18,0,.31-.03.61-.09.92ZM66.16,63.13c.55-.11,1.09-.23,1.63-.35l.74,2.83-1.68.44-.18.05-1.71.45-.75-2.9,1.92-.5h.04ZM72.21,74.8c-.6,1.01-1.54,1.72-2.67,2.02-1.14.29-2.31.13-3.32-.46-1-.6-1.72-1.54-2.01-2.67-.4-1.54.07-3.1,1.11-4.15l.92,3.55,1.52-.39-1.07-4.11c.21-.1.43-.17.66-.24.22-.06.45-.1.67-.13h0l1.07,4.11,1.52-.39-.92-3.56h0c.34.1.67.24.97.42,1,.59,1.72,1.54,2.02,2.67.29,1.13.13,2.3-.46,3.32h0Z"/>
  </g>
</svg>