<?xml version="1.0" encoding="UTF-8"?>
<svg id="Layer_2" xmlns="http://www.w3.org/2000/svg" viewBox="0 0 100 100">
  <defs>
    <style>
      .cls-1 {
        fill: #ed1c24;
      }

      .cls-2 {
        fill: #fff;
      }
    </style>
  </defs>
  <circle class="cls-1" cx="50" cy="50" r="49"/>
  <g id="Layer_2-2" data-name="Layer_2">
    <g id="Layer_1-2">
      <path class="cls-2" d="M37.03,46.87l15.81.2v-7.81l-11.19.07-4.62,7.55ZM50.59,41.52v3.27l-9.57-.12,1.9-3.12,7.67-.02Z"/>
      <path class="cls-2" d="M28.81,60.48c-2.67,0-4.84,2.17-4.84,4.84,0,2.67,2.17,4.84,4.84,4.84,2.66,0,4.82-2.14,4.84-4.8.02-2.68-2.14-4.87-4.82-4.88,0,0-.02,0-.02,0ZM28.81,67.91c-1.43,0-2.59-1.15-2.59-2.58,0-1.43,1.15-2.59,2.58-2.59,1.43,0,2.59,1.15,2.59,2.58,0,.02,0,.03,0,.05-.02,1.41-1.17,2.54-2.58,2.55Z"/>
      <path class="cls-2" d="M65.14,60.48c-2.67,0-4.84,2.17-4.84,4.84,0,2.67,2.17,4.84,4.84,4.84,2.66,0,4.82-2.14,4.84-4.8.02-2.67-2.13-4.86-4.8-4.88-.01,0-.03,0-.04,0ZM65.14,67.91c-1.43,0-2.59-1.16-2.59-2.59,0-1.43,1.16-2.59,2.59-2.59,1.43,0,2.59,1.16,2.59,2.59,0,.01,0,.03,0,.04-.02,1.41-1.17,2.55-2.59,2.55Z"/>
      <path class="cls-2" d="M78.14,24.74c-1.61,0-2.92,1.31-2.92,2.92,0,.14.02.27.04.41-2.38,1.75-3.85,4.46-4.02,7.41l-2.98,1.91,1.91,1.23-1.9,1.23,1.91,1.23-1.91,1.23,1.91,1.23-.15.09h-13.69v-7.75l-16.58.09-4.45,6.74-15.62,2.89v11.86h3.12c-4.35,3.33-5.18,9.55-1.85,13.9,3.33,4.35,9.55,5.18,13.9,1.85,2.44-1.87,3.88-4.77,3.89-7.84v-.84h16.53c0,.27-.05.55-.05.84.01,5.48,4.46,9.91,9.94,9.9,5.48-.01,9.91-4.46,9.9-9.94,0-3.08-1.45-5.99-3.9-7.86h6.52v-13.84h-3.52l.15-.09-1.91-1.23,1.95-1.23-1.91-1.23,1.91-1.23-1.91-1.23.56-.36.48-.55v-.43c0-2.36,1.09-4.59,2.96-6.04.49.37,1.09.57,1.71.57,1.61,0,2.92-1.31,2.92-2.92,0-1.61-1.31-2.92-2.92-2.92h-.03ZM28.81,72.99c-4.23,0-7.66-3.43-7.66-7.66,0-4.23,3.43-7.66,7.66-7.66,4.23,0,7.66,3.43,7.66,7.66,0,.01,0,.03,0,.04-.03,4.22-3.45,7.62-7.66,7.62ZM34.84,57.46h1.75v1.72c-.51-.64-1.1-1.22-1.75-1.72ZM54.83,62.24h-15.98v-4.69h15.98v4.69ZM72.8,65.36c0,4.24-3.43,7.67-7.66,7.68-4.24,0-7.67-3.43-7.68-7.66,0-4.24,3.43-7.67,7.66-7.68,0,0,0,0,0,0,4.23,0,7.66,3.43,7.67,7.66ZM57.09,59.57v-2.11h2.01c-.76.59-1.43,1.29-1.99,2.07l-.02.04ZM75.43,55.21H21.95v-7.73l14.74-2.71,4.28-6.55,13.08-.08v7.73h21.38v9.34ZM78.14,28.33c-.37,0-.66-.3-.66-.66s.3-.66.66-.66.66.3.66.66-.3.66-.66.66Z"/>
    </g>
  </g>
</svg>