<?xml version="1.0" encoding="UTF-8"?>
<svg id="Layer_2" xmlns="http://www.w3.org/2000/svg" viewBox="0 0 100 100">
  <defs>
    <style>
      .cls-1 {
        fill: #ed1c24;
      }

      .cls-2 {
        fill: #fff;
      }
    </style>
  </defs>
  <circle class="cls-1" cx="50" cy="50" r="49"/>
  <g id="Layer_2-2" data-name="Layer_2">
    <g id="Layer_1-2">
      <path class="cls-2" d="M77.89,30.12l-.17-.21-1.93,1.53.17.22c7.73,9.79,7.66,23.61-.16,33.33l1.91,1.56c8.55-10.61,8.62-25.72.18-36.42Z"/>
      <path class="cls-2" d="M72.78,34.98l-.13-.16-1.93,1.54.13.15c5.45,6.91,5.4,16.67-.12,23.52l1.91,1.56c6.24-7.75,6.3-18.79.14-26.61Z"/>
      <path class="cls-2" d="M24.31,31.66l.18-.22-1.93-1.53-.18.21c-8.42,10.69-8.34,25.78.19,36.38l1.91-1.56c-7.81-9.7-7.88-23.51-.17-33.29Z"/>
      <path class="cls-2" d="M29.42,36.52l.13-.16-1.93-1.54-.13.16c-6.16,7.82-6.1,18.85.14,26.61l1.91-1.56c-5.51-6.85-5.56-16.61-.12-23.52Z"/>
      <path class="cls-2" d="M64.65,59.23v-14.06c0-6.73-4.63-12.58-11.18-14.13v-1.79c0-1.84-1.49-3.33-3.33-3.33-1.84,0-3.33,1.49-3.33,3.33h0v1.8c-6.55,1.55-11.18,7.4-11.19,14.13v14.06l-6.47,11.56h14.2c.13,3.74,3.28,6.67,7.02,6.54,3.56-.13,6.41-2.98,6.54-6.54h14.21l-6.48-11.56ZM49.27,29.24c0-.47.38-.85.85-.85s.85.38.85.85v1.14h-1.71v-1.14ZM38.09,59.86v-14.69c0-6.65,5.4-12.05,12.05-12.04,6.65,0,12.04,5.39,12.04,12.04v14.69l4.73,8.48h-33.56l4.73-8.48ZM50.14,74.9c-2.29-.02-4.16-1.83-4.27-4.11h8.57c-.11,2.3-2,4.1-4.3,4.11Z"/>
    </g>
  </g>
</svg>