<?xml version="1.0" encoding="UTF-8"?>
<svg id="Layer_2" xmlns="http://www.w3.org/2000/svg" viewBox="0 0 100 100">
  <defs>
    <style>
      .cls-1 {
        fill: #ed1c24;
      }

      .cls-2 {
        fill: #fff;
      }
    </style>
  </defs>
  <circle class="cls-1" cx="50" cy="50" r="49"/>
  <g id="Layer_1-2">
    <g>
      <path class="cls-2" d="M50,45.35c-10.07,0-18.26,8.19-18.26,18.26s8.19,18.26,18.26,18.26,18.26-8.19,18.26-18.26-8.19-18.26-18.26-18.26ZM50,79.63c-8.84,0-16.03-7.19-16.03-16.03s7.19-16.03,16.03-16.03,16.03,7.19,16.03,16.03-7.19,16.03-16.03,16.03Z"/>
      <path class="cls-2" d="M65.51,42.12c-3.08-4.68-6.44-8.19-9.66-10.22h.07c.31-1.64.48-3.41.48-5.23,0-7.71-2.75-13.52-6.38-13.52s-6.38,5.81-6.38,13.52c0,2,.19,3.86.52,5.54-8.22,5.74-17.38,21.07-17.38,31.38,0,12.81,10.42,23.24,23.24,23.24s23.24-10.42,23.24-23.24c0-6.01-2.96-14.24-7.73-21.47h0ZM45.84,26.68c0-6.47,2.2-11.29,4.16-11.29,1.74,0,4.16,4.3,4.16,11.29,0,1.43-.11,2.82-.32,4.14-1.33-.59-2.62-.9-3.83-.9s-2.47.38-3.81,1.05c-.22-1.31-.34-2.75-.34-4.3h-.01ZM50,84.61c-11.59,0-21.01-9.43-21.01-21.01,0-9.11,8.43-23.58,15.73-29.15.25.79.55,1.51.88,2.17-1.22.52-2.07,1.73-2.07,3.14,0,1.88,1.53,3.41,3.41,3.41h6.13c1.88,0,3.41-1.53,3.41-3.41s-1.53-3.41-3.41-3.41h-5.09c-.5-.81-.95-1.89-1.31-3.18,1.18-.65,2.31-1.02,3.33-1.02,8.25,0,21.01,19.11,21.01,31.45,0,11.59-9.43,21.01-21.01,21.01h0ZM46.87,38.58c.91,1.04,1.97,1.62,3.13,1.62.82,0,1.98-.31,3.13-1.62.62.03,1.12.55,1.12,1.18s-.53,1.19-1.19,1.19h-6.13c-.65,0-1.19-.53-1.19-1.19s.5-1.15,1.13-1.18h0Z"/>
    </g>
  </g>
</svg>