<?xml version="1.0" encoding="UTF-8"?>
<svg id="Layer_2" xmlns="http://www.w3.org/2000/svg" viewBox="0 0 100 100">
  <defs>
    <style>
      .cls-1 {
        fill: #ed1c24;
      }

      .cls-2 {
        fill: #fff;
      }
    </style>
  </defs>
  <circle class="cls-1" cx="50" cy="50" r="49"/>
  <g id="Layer_2-2" data-name="Layer_2">
    <g id="Layer_1-2">
      <polygon class="cls-2" points="28.04 41.32 49.54 21.86 80.82 50.18 82.41 48.43 49.54 18.67 16.67 48.43 18.26 50.18 25.68 43.46 25.68 75.81 47.97 75.81 47.97 73.45 28.04 73.45 28.04 41.32"/>
      <path class="cls-2" d="M44.15,62.37l-.24.19,1.47,1.85.24-.2c10.64-8.38,25.66-8.3,36.21.19l1.49-1.83c-11.41-9.19-27.67-9.27-39.17-.2Z"/>
      <path class="cls-2" d="M52.86,71.45l-.13.11,1.46,1.85.13-.11c5.5-4.32,13.25-4.28,18.7.1l1.49-1.83c-6.31-5.08-15.29-5.13-21.65-.11Z"/>
      <path class="cls-2" d="M60.01,79.52h0l1.51,1.81c1.27-1,3.06-1,4.33,0l1.49-1.83c-2.15-1.71-5.2-1.7-7.33.02Z"/>
    </g>
  </g>
</svg>