<?xml version="1.0" encoding="UTF-8"?>
<svg id="Layer_2" xmlns="http://www.w3.org/2000/svg" viewBox="0 0 100 100">
  <defs>
    <style>
      .cls-1 {
        fill: #ed1c24;
      }

      .cls-2 {
        stroke-width: 2.2px;
      }

      .cls-2, .cls-3 {
        fill: none;
        stroke: #fff;
        stroke-miterlimit: 10;
      }

      .cls-3 {
        stroke-width: 2.07px;
      }
    </style>
  </defs>
  <circle class="cls-1" cx="50" cy="50" r="49"/>
  <g id="Layer_2-2" data-name="Layer_2">
    <g id="Layer_1-2">
      <path class="cls-2" d="M70.2,30.61c0-.17.14-.31.31-.31s.31.14.31.31v.41h-.61v-.41ZM66.2,41.58v-5.26c0-2.38,1.93-4.31,4.32-4.31,2.38,0,4.31,1.93,4.31,4.31v5.26l1.7,3.04h-12.02l1.7-3.04ZM70.52,46.97c-.82,0-1.49-.65-1.53-1.47h3.07c-.04.82-.72,1.47-1.54,1.47Z"/>
      <path class="cls-3" d="M69.9,54.86v25.13H30.1V22.76c0-1.52,1.09-2.75,2.43-2.75h34.96c1.34,0,2.43,1.23,2.43,2.75"/>
      <line class="cls-2" x1="21.64" y1="79.99" x2="79.58" y2="79.99"/>
      <line class="cls-2" x1="34.41" y1="52.75" x2="41.98" y2="52.75"/>
      <circle class="cls-2" cx="69.9" cy="38.64" r="12.02"/>
    </g>
  </g>
</svg>