<?xml version="1.0" encoding="UTF-8"?>
<svg id="Layer_2" xmlns="http://www.w3.org/2000/svg" viewBox="0 0 100 100">
  <defs>
    <style>
      .cls-1 {
        fill: #ed1c24;
      }

      .cls-2 {
        fill: #fff;
      }
    </style>
  </defs>
  <circle class="cls-1" cx="50" cy="50" r="49"/>
  <g id="Layer_2-2" data-name="Layer_2">
    <g id="Layer_1-2">
      <path class="cls-2" d="M36.44,53.67l-2.87,5.61c-.39.77-.35,1.69.09,2.44.38.64,1.07,1.04,1.82,1.05h28.23c.75,0,1.43-.41,1.81-1.05.44-.74.48-1.66.09-2.44l-2.87-5.61c-.35-.73-1.09-1.2-1.9-1.21h-22.5c-.81.01-1.55.48-1.9,1.21ZM60.64,54.9l2.74,5.41h-27.59l2.77-5.41h22.09Z"/>
      <path class="cls-2" d="M16.1,33.16l1.51,1.96c2.14,2.91,5.23,4.98,8.74,5.87,5.06,1.08,10.18,1.81,15.34,2.18v5.07h-9.52c-.76,0-3.3.11-4.12,1.47l-7.68,13.24c-.71,1.24-.28,2.82.96,3.53.39.22.83.34,1.27.34h54.81c1.4.04,2.57-1.06,2.61-2.46.02-.5-.12-.99-.38-1.41l-7.7-13.22c-.85-1.35-3.38-1.46-4.11-1.46h-9.52v-5.07c5.16-.38,10.3-1.12,15.36-2.22,3.51-.87,6.59-2.94,8.72-5.86l1.51-1.96H16.1ZM67.84,50.73c.71-.04,1.41.09,2.06.36l7.61,13.1s.02.09,0,.14c-.02.05-.07.08-.13.08H22.6c-.05,0-.1-.03-.12-.08-.03-.04-.03-.09,0-.14l7.61-13.11c.66-.27,1.36-.39,2.07-.36h35.68ZM44.16,43.35h11.72v4.92h-11.76l.04-4.92ZM73.15,38.62c-5.3,1.12-10.67,1.86-16.07,2.22l-1.13.08h-11.83l-1.13-.08c-5.4-.36-10.77-1.1-16.07-2.22-2.09-.5-4.02-1.54-5.59-3.01h57.34c-1.56,1.47-3.48,2.51-5.56,3.01h.04Z"/>
    </g>
  </g>
</svg>