<?xml version="1.0" encoding="UTF-8"?>
<svg id="Layer_2" xmlns="http://www.w3.org/2000/svg" viewBox="0 0 100 100">
  <defs>
    <style>
      .cls-1 {
        fill: #ed1c24;
      }

      .cls-2 {
        fill: #fff;
      }
    </style>
  </defs>
  <circle class="cls-1" cx="50" cy="50" r="49"/>
  <g id="Layer_1-2">
    <path class="cls-2" d="M65.46,11.13c-.59-.6-1.4-.94-2.25-.94h-9.12c-.25-.83-1.03-1.41-1.89-1.41h-4.38c-.87,0-1.63.57-1.87,1.4h-9.13c-.86,0-1.65.33-2.25.94s-.94,1.41-.94,2.25v10.15c0,.86.33,1.65.94,2.26.6.6,1.4.93,2.25.94h9.09c.07.37.26.72.53.99.35.35.81.55,1.29.58v.03h1.1v11.53h-1.86v17.19c-1.46.07-2.63,1.29-2.63,2.76v28.62c0,.75.29,1.44.81,1.97.53.53,1.23.81,1.96.81h5.85c.72,0,1.41-.29,1.92-.81.52-.53.81-1.23.81-1.96v-28.61c0-.74-.29-1.44-.81-1.97l-.04-.03h0c-.49-.47-1.13-.74-1.79-.76v-17.2h-1.85v-11.53h1.1v-.03c.89-.06,1.65-.72,1.83-1.59h9.08c.86,0,1.67-.33,2.25-.93.61-.61.95-1.41.95-2.26v-10.13c0-.86-.34-1.66-.95-2.26h.02ZM50.76,42.16v14.91h-1.5v-14.91h1.5ZM53.21,19.28c.27-.53.4-1.07.4-1.63,0-1.99-1.62-3.62-3.62-3.62s-3.62,1.62-3.62,3.62c0,.56.14,1.1.4,1.63-2.01.81-3.35,2.78-3.35,4.93v.12h-6.75c-.23,0-.45-.09-.62-.26-.2-.17-.3-.43-.3-.69v-1.98s.02-.07.07-.12l.02-.02s.05-.02.07-.02c.22,0,.46-.08.62-.25.17-.17.26-.39.26-.64v-3.77c0-.25-.1-.47-.26-.62-.16-.17-.39-.26-.63-.26-.02,0-.04,0-.08-.02-.04-.02-.07-.07-.07-.13v-1.97c0-.28.11-.53.31-.72.16-.16.39-.24.63-.25h9.36c.09.19.21.35.36.49.36.37.86.58,1.4.58h4.37c.53,0,1.02-.21,1.39-.58.14-.13.26-.3.35-.49h9.34c.25,0,.49.11.67.27.18.17.29.44.29.69v9.81c0,.26-.11.51-.3.69-.19.17-.41.26-.66.26h-6.72v-.12c0-2.16-1.34-4.13-3.35-4.93h0ZM45.82,24.21c0-1.63,1.32-2.95,2.95-2.95h2.46c1.63,0,2.95,1.32,2.95,2.95v.07h-.39c-.37-.52-.96-.83-1.6-.84h-4.37c-.53,0-1.02.21-1.4.58-.08.08-.16.16-.21.25h-.39s0-.07,0-.07ZM50,18.89c-.68,0-1.24-.56-1.24-1.24s.56-1.24,1.24-1.24,1.24.56,1.24,1.24-.56,1.24-1.24,1.24ZM53.39,59.83v28.63c0,.14-.06.25-.14.35-.09.09-.21.14-.34.14h-5.8c-.13,0-.25-.05-.35-.14-.1-.1-.14-.21-.14-.33v-28.65c0-.25.19-.46.44-.48h5.87c.12.02.22.06.32.14.09.09.14.21.14.34h0Z"/>
  </g>
</svg>