<?xml version="1.0" encoding="UTF-8"?>
<svg id="Layer_2" xmlns="http://www.w3.org/2000/svg" viewBox="0 0 100 100">
  <defs>
    <style>
      .cls-1 {
        fill: #ed1c24;
      }

      .cls-2 {
        fill: #fff;
      }
    </style>
  </defs>
  <circle class="cls-1" cx="50" cy="50" r="49"/>
  <g id="Layer_2-2" data-name="Layer_2">
    <g id="Layer_1-2">
      <path class="cls-2" d="M66.15,43.07c-.08-.32-.84-3.21-2.53-4.15-.44-.24-.91-.5-1.37-.73-1.39-.77-2.86-1.4-4.38-1.86h0c-4.79-1.37-9.86-1.46-14.7-.28-1.98.5-3.89,1.24-5.68,2.21l-1.17.64c-1.69.95-2.42,3.87-2.53,4.22-1.28,5.64-1.61,11.46-.96,17.22.67,5.67,2.28,11.27,4.13,17.76l.3,1.05c.21.77.68,1.44,1.33,1.9,3.29,2.44,7.28,3.75,11.38,3.72,4.13.05,8.16-1.26,11.47-3.72.69-.47,1.2-1.17,1.44-1.97l.25-.9c1.77-6.51,3.31-12.14,3.99-17.84.71-5.76.38-11.61-.99-17.25ZM51.21,53.88c-.04.63-.59,1.11-1.23,1.06,0,0,0,0,0,0-.55.03-1.03-.39-1.06-.94,0-.04,0-.08,0-.12v-9.89c-.04-.59.4-1.1.99-1.14.02,0,.05,0,.07,0,.65-.01,1.2.5,1.23,1.15v9.89ZM64.7,60.04c-.66,5.52-2.17,11.07-3.92,17.49l-.22.84c-.08.26-.23.49-.45.66l-.13.09c-2.89,2.15-6.41,3.29-10.01,3.24-3.58.03-7.08-1.12-9.95-3.26l-.11-.08s-.17-.1-.34-.6l-.31-1c-1.82-6.38-3.37-11.89-4.05-17.35-.59-5.48-.27-11.02.97-16.39.18-.98.63-1.88,1.31-2.61l1.14-.62c1.61-.88,3.33-1.55,5.11-2,1.64-.4,3.32-.64,5.01-.71v2.89c-1.4.53-2.31,1.88-2.28,3.37v9.88c-.04,1.51.92,2.86,2.36,3.31v5.69h2.44v-5.74c1.38-.49,2.31-1.79,2.33-3.26v-9.89c-.01-1.53-1-2.89-2.45-3.37v-2.88c2.04.09,4.05.42,6.01.97,1.37.41,2.69.96,3.94,1.64l1.32.72c.68.72,1.13,1.62,1.32,2.59,1.3,5.36,1.62,10.91.95,16.39Z"/>
      <path class="cls-2" d="M36.22,22.19c8.18-6.43,19.72-6.37,27.84.14l1.36-1.69c-8.91-7.14-21.56-7.2-30.54-.14l-.19.15,1.34,1.69.19-.15Z"/>
      <path class="cls-2" d="M41.62,27.54l-.09.08,1.34,1.69.1-.08c4.2-3.31,10.12-3.28,14.29.07l1.36-1.69c-4.96-3.98-12.01-4.01-17-.07Z"/>
    </g>
  </g>
</svg>